<svg xmlns="http://www.w3.org/2000/svg" width="64.333" height="55.606" viewBox="0 0 64.333 55.606">
  <g id="empty-box-svgrepo-com" transform="translate(-24 -90)" opacity="0.51">
    <path id="Path_709" data-name="Path 709" d="M73.395,98.716l-9.861,5.01.158.105-.158-.105L53.146,98.4,32,111l9.808,5.642v23.36l21.726-11.548,21.409,11.548v-23.36l10.336-5.959Z" transform="translate(-7.473 -7.846)" fill="#fff"/>
    <path id="Path_710" data-name="Path 710" d="M34.336,132.687a.4.4,0,0,1-.264-.053.554.554,0,0,1-.264-.475v-23.1l-9.545-5.484a.47.47,0,0,1-.264-.422.629.629,0,0,1,.264-.475l21.146-12.6a.479.479,0,0,1,.527,0L56.114,95.3l9.545-4.9a.5.5,0,0,1,.475,0l21.884,11.97a.559.559,0,0,1,0,.949l-10.072,5.8v23.1a.554.554,0,0,1-.264.475.479.479,0,0,1-.527,0l-21.093-11.5L34.6,132.634A.475.475,0,0,1,34.336,132.687Zm-8.754-29.53,9.017,5.168a.554.554,0,0,1,.264.475v22.517L55.8,120.136a.394.394,0,0,1,.475,0L76.89,131.316V108.8a.554.554,0,0,1,.264-.475l9.6-5.484L65.869,91.5l-9.175,4.64c0,.053-.053.053-.053.105a.519.519,0,0,1-.738.158L55.8,96.3h-.053L45.673,91.134Z" fill="#6a576d"/>
    <path id="Path_711" data-name="Path 711" d="M510.4,179.2l21.409,12.919v23.36L510.4,203.931Z" transform="translate(-454.339 -83.32)" fill="#121519"/>
    <path id="Path_712" data-name="Path 712" d="M202.526,179.2,180.8,192.119v23.36l21.726-11.548Z" transform="translate(-146.465 -83.32)" fill="#121519"/>
    <path id="Path_713" data-name="Path 713" d="M524.337,208.161a.476.476,0,0,1-.264-.053l-21.409-11.6a.554.554,0,0,1-.264-.475V171.354a.554.554,0,0,1,.264-.475.479.479,0,0,1,.527,0L524.6,183.8a.554.554,0,0,1,.264.475v23.413a.554.554,0,0,1-.264.475Zm-20.882-12.392,20.355,11.021V184.537L503.455,172.3Z" transform="translate(-446.866 -75.474)" fill="#6a576d"/>
    <path id="Path_714" data-name="Path 714" d="M173.327,208.161a.4.4,0,0,1-.264-.053.554.554,0,0,1-.264-.475v-23.36a.554.554,0,0,1,.264-.475l21.726-12.919a.479.479,0,0,1,.527,0,.554.554,0,0,1,.264.475v24.731a.554.554,0,0,1-.264.475l-21.726,11.6Zm.527-23.624V206.79l20.671-11.021V172.3Z" transform="translate(-138.992 -75.474)" fill="#6a576d"/>
    <path id="Path_715" data-name="Path 715" d="M202.526,386l-9.123-3.586L180.8,374.4v23.413l21.726,12.919,21.409-12.919V374.4l-9.65,7.172Z" transform="translate(-146.465 -265.654)" fill="#707070"/>
    <path id="Path_716" data-name="Path 716" d="M195.053,403.413a.4.4,0,0,1-.264-.053l-21.726-12.919a.554.554,0,0,1-.264-.475V366.554a.554.554,0,0,1,.264-.475.479.479,0,0,1,.527,0l12.6,8.015,8.912,3.533,11.5-4.377,9.545-7.119a.485.485,0,0,1,.527-.053.554.554,0,0,1,.264.475v23.413a.554.554,0,0,1-.264.475l-21.409,12.919A.545.545,0,0,1,195.053,403.413Zm-21.2-13.71,21.2,12.6,20.882-12.6V367.608l-8.806,6.539a.163.163,0,0,1-.105.053l-11.759,4.482a.45.45,0,0,1-.369,0l-9.123-3.586c-.053,0-.053-.053-.105-.053l-11.812-7.488Z" transform="translate(-138.992 -257.807)" fill="#6a576d"/>
    <path id="Path_717" data-name="Path 717" d="M510.4,410.733l21.409-12.919V374.4l-11.179,7.963L510.4,386Z" transform="translate(-454.339 -265.654)" fill="#121519"/>
    <path id="Path_718" data-name="Path 718" d="M502.927,404.044a.476.476,0,0,1-.264-.053.554.554,0,0,1-.264-.475V378.785a.506.506,0,0,1,.369-.475l10.177-3.639,11.074-7.91a.624.624,0,0,1,.527-.053.554.554,0,0,1,.264.475V390.6a.554.554,0,0,1-.264.475l-21.409,12.919A.545.545,0,0,1,502.927,404.044Zm.527-24.89v23.413l20.355-12.234V368.238l-10.336,7.33a.163.163,0,0,1-.105.053Z" transform="translate(-446.866 -258.437)" fill="#6a576d"/>
    <path id="Path_719" data-name="Path 719" d="M185.546,389.534l16.98,9.6V386l-9.7-3.269L180.8,374.4Z" transform="translate(-146.465 -265.654)" fill="#121519"/>
    <path id="Path_720" data-name="Path 720" d="M32,380.042l9.808-5.642L63.534,386,53.093,391.96Z" transform="translate(-7.473 -265.654)" fill="#fff"/>
    <path id="Path_721" data-name="Path 721" d="M520.208,396.187l11.6-5.959V375.2l-9.439,6.961-11.812,4.482-.158.105Z" transform="translate(-454.339 -266.401)" fill="#121519"/>
    <path id="Path_722" data-name="Path 722" d="M510.4,386.748l9.808,5.642,21.937-11.285L531.809,375.2Z" transform="translate(-454.339 -266.401)" fill="#fff"/>
    <path id="Path_723" data-name="Path 723" d="M45.62,385.388a.475.475,0,0,1-.264-.053L24.264,373.418a.559.559,0,0,1,0-.949l9.808-5.59a.479.479,0,0,1,.527,0l21.726,11.6a.559.559,0,0,1,0,.949l-10.441,5.906A.4.4,0,0,1,45.62,385.388ZM25.582,372.943,45.62,384.281l9.334-5.326L34.336,367.934Z" transform="translate(0 -258.555)" fill="#6a576d"/>
    <path id="Path_724" data-name="Path 724" d="M512.735,384.324a.475.475,0,0,1-.264-.053l-9.808-5.642a.559.559,0,0,1,0-.949l21.409-11.6a.479.479,0,0,1,.527,0l10.336,5.959a.559.559,0,0,1,0,.949L513,384.272A.475.475,0,0,1,512.735,384.324Zm-8.7-6.17,8.754,5.01,20.829-10.7-9.334-5.273Z" transform="translate(-446.866 -257.807)" fill="#6a576d"/>
  </g>
</svg>
