<svg xmlns="http://www.w3.org/2000/svg" width="24" height="24" viewBox="0 0 24 24">
  <g id="Group_60814" data-name="Group 60814" transform="translate(-393 6344)">
    <rect id="Rectangle_1345" data-name="Rectangle 1345" width="24" height="24" transform="translate(393 -6344)" fill="none"/>
    <g id="Iconly_Light-Outline_Delete" data-name="Iconly/Light-Outline/Delete" transform="translate(391.944 -6344.896)">
      <g id="Delete" transform="translate(3 2)">
        <path id="Combined-Shape" d="M17.853,7.322a.818.818,0,0,1,.75.88c-.007.074-.6,7.386-.937,10.454a3.243,3.243,0,0,1-3.367,3.1c-1.452.025-2.854.039-4.223.039-1.476,0-2.916-.016-4.34-.046a3.233,3.233,0,0,1-3.288-3.082C2.1,15.569,1.516,8.276,1.511,8.2a.816.816,0,0,1,.749-.88.839.839,0,0,1,.88.749c0,.047.244,3.026.505,5.973l.053.588c.132,1.465.265,2.872.374,3.852a1.6,1.6,0,0,0,1.7,1.628c2.724.058,5.5.061,8.5.007a1.63,1.63,0,0,0,1.772-1.642c.338-3.044.926-10.332.933-10.406A.835.835,0,0,1,17.853,7.322ZM12.362,0A2.215,2.215,0,0,1,14.5,1.641l.277,1.374a.98.98,0,0,0,.942.787h3.576a.817.817,0,0,1,0,1.634H.817a.817.817,0,0,1,0-1.634H4.392l.11-.007a.983.983,0,0,0,.834-.779L5.6,1.69A2.227,2.227,0,0,1,7.75,0Zm0,1.634H7.75a.576.576,0,0,0-.558.427L6.938,3.337A2.592,2.592,0,0,1,6.8,3.8h6.515a2.6,2.6,0,0,1-.14-.466l-.265-1.325A.571.571,0,0,0,12.362,1.635Z" transform="translate(0 0)" fill="#fff" fill-rule="evenodd"/>
      </g>
    </g>
  </g>
</svg>
