<svg width="55" height="55" viewBox="0 0 55 55" fill="none" xmlns="http://www.w3.org/2000/svg">
<circle cx="27.5" cy="27.5" r="26.54" fill="url(#paint0_linear_766_10)"/>
<g clip-path="url(#clip0_766_10)">
<path fill-rule="evenodd" clip-rule="evenodd" d="M15.0126 14.0938C14.3975 10.925 16.858 8 20.0568 8C22.8864 8 25.224 10.3156 25.224 13.1187V19.4562C25.9621 19.4562 26.7003 19.3344 27.4385 19.3344C28.1767 19.3344 28.7918 19.3344 29.53 19.4562V13.1187C29.53 10.3156 31.8675 8 34.6972 8C37.8959 8 40.3565 10.925 39.8644 14.0938L38.511 21.5281C43.3091 23.6 47 27.2562 47 31.7656V34.5687C47 38.3469 44.5394 41.5156 40.9716 43.5875C37.4038 45.7813 32.7287 47 27.4385 47C22.1483 47 17.4732 45.7813 13.9054 43.5875C10.4606 41.5156 8 38.3469 8 34.5687V31.7656C8 27.2562 11.5678 23.6 16.3659 21.5281L15.0126 14.0938ZM36.6656 22.5031L38.265 13.7281C38.6341 11.5344 37.0347 9.4625 34.6972 9.4625C32.7287 9.4625 31.1293 11.0469 31.1293 12.9969V21.0406C30.6372 20.9187 30.0221 20.9188 29.53 20.9188C28.7918 20.9188 28.1767 20.7969 27.4385 20.7969C26.7003 20.7969 25.9621 20.7969 25.224 20.9188C24.7319 20.9188 24.1167 21.0406 23.6246 21.0406V13.1187C23.6246 11.1687 22.0252 9.58437 20.0568 9.58437C17.8423 9.58437 16.1199 11.6563 16.612 13.85L18.2114 22.625C13.0442 24.575 9.59937 27.9875 9.59937 31.8875V34.6906C9.59937 40.6625 17.5962 45.5375 27.4385 45.5375C37.2808 45.5375 45.2776 40.6625 45.2776 34.6906V31.8875C45.4006 27.8656 41.9558 24.4531 36.6656 22.5031Z" fill="#633001"/>
<path d="M45.4006 34.5687C45.4006 40.5406 37.4038 45.4156 27.5615 45.4156C17.7193 45.4156 9.72241 40.5406 9.72241 34.5687V31.7656H45.5237V34.5687H45.4006Z" fill="#FEDC90"/>
<path fill-rule="evenodd" clip-rule="evenodd" d="M16.612 13.8501C16.1199 11.6563 17.8423 9.58447 20.0568 9.58447C22.0253 9.58447 23.6246 11.1688 23.6246 13.1188V21.1626C24.8549 21.0407 26.0852 20.9188 27.4385 20.9188C28.6688 20.9188 29.8991 21.0407 31.1294 21.1626V13.1188C31.1294 11.1688 32.7287 9.58447 34.6972 9.58447C36.9117 9.58447 38.6341 11.6563 38.265 13.8501L36.6656 22.6251C41.8328 24.5751 45.4006 27.9876 45.4006 31.8876C45.4006 37.8595 37.4038 42.7345 27.5615 42.7345C17.7193 42.7345 9.72241 37.8595 9.72241 31.8876C9.72241 27.9876 13.1672 24.5751 18.3344 22.6251L16.612 13.8501Z" fill="#D1884F"/>
<path d="M22.5174 31.0344C22.5174 32.6187 21.6562 33.9594 20.5489 33.9594C19.4416 33.9594 18.5804 32.6187 18.5804 31.0344C18.5804 29.45 19.4416 28.1094 20.5489 28.1094C21.6562 28.1094 22.5174 29.45 22.5174 31.0344Z" fill="#633001"/>
<path d="M36.1735 31.0344C36.1735 32.6187 35.3123 33.9594 34.205 33.9594C33.0978 33.9594 32.2366 32.6187 32.2366 31.0344C32.2366 29.45 33.0978 28.1094 34.205 28.1094C35.3123 28.1094 36.1735 29.45 36.1735 31.0344Z" fill="#633001"/>
</g>
<defs>
<linearGradient id="paint0_linear_766_10" x1="5.83163" y1="6.39049" x2="41.8639" y2="54.04" gradientUnits="userSpaceOnUse">
<stop stop-color="#00A3FF"/>
<stop offset="0.979167" stop-color="#2CCCFE"/>
</linearGradient>
<clipPath id="clip0_766_10">
<rect width="39" height="39" fill="white" transform="translate(8 8)"/>
</clipPath>
</defs>
</svg>
