<svg width="22" height="22" viewBox="0 0 22 22" fill="none" xmlns="http://www.w3.org/2000/svg">
<path fill-rule="evenodd" clip-rule="evenodd" d="M9.43403 1.52985H9.48303C9.65708 1.52985 9.824 1.59899 9.94707 1.72206C10.0701 1.84513 10.1393 2.01205 10.1393 2.1861C10.1393 2.36014 10.0701 2.52706 9.94707 2.65013C9.824 2.77321 9.65708 2.84235 9.48303 2.84235C7.81441 2.84235 6.62966 2.8441 5.72928 2.96485C4.84991 3.08297 4.34241 3.30522 3.97228 3.67535C3.60216 4.04547 3.37991 4.55297 3.26178 5.43322C3.14103 6.33272 3.13928 7.51747 3.13928 9.18609C3.13928 9.36014 3.07014 9.52706 2.94707 9.65013C2.824 9.7732 2.65708 9.84234 2.48303 9.84234C2.30898 9.84234 2.14206 9.7732 2.01899 9.65013C1.89592 9.52706 1.82678 9.36014 1.82678 9.18609V9.13709C1.82678 7.52885 1.82678 6.25485 1.96066 5.25822C2.09891 4.23272 2.38941 3.40235 3.04391 2.74697C3.69928 2.09247 4.52966 1.80197 5.55516 1.66372C6.55266 1.52985 7.82578 1.52985 9.43403 1.52985ZM16.7359 2.96485C15.8373 2.8441 14.6517 2.84235 12.983 2.84235C12.809 2.84235 12.6421 2.77321 12.519 2.65013C12.3959 2.52706 12.3268 2.36014 12.3268 2.1861C12.3268 2.01205 12.3959 1.84513 12.519 1.72206C12.6421 1.59899 12.809 1.52985 12.983 1.52985H13.032C14.6403 1.52985 15.9143 1.52985 16.9109 1.66372C17.9364 1.80197 18.7668 2.09247 19.4222 2.74697C20.0767 3.40235 20.3672 4.23272 20.5054 5.25822C20.6393 6.25572 20.6393 7.52885 20.6393 9.13709V9.18609C20.6393 9.36014 20.5701 9.52706 20.4471 9.65013C20.324 9.7732 20.1571 9.84234 19.983 9.84234C19.809 9.84234 19.6421 9.7732 19.519 9.65013C19.3959 9.52706 19.3268 9.36014 19.3268 9.18609C19.3268 7.51747 19.325 6.33272 19.2043 5.43235C19.0862 4.55297 18.8639 4.04547 18.4938 3.67535C18.1237 3.30522 17.6162 3.08297 16.7359 2.96485ZM9.43753 4.59235H13.0285C13.8152 4.59235 14.4705 4.59235 14.9903 4.66235C15.5398 4.73585 16.0359 4.8986 16.434 5.29672C16.833 5.69572 16.9958 6.19185 17.0693 6.74047C17.1393 7.2611 17.1393 7.91735 17.1393 8.70309V9.14584C17.4928 9.29425 17.8357 9.46674 18.1657 9.66209C18.3288 9.7599 18.4866 9.86652 18.6382 9.98147L18.6469 9.99022L18.6504 9.99197L18.6522 9.99372L18.233 10.4986L18.653 9.99459C18.7856 10.1061 18.8686 10.2655 18.8842 10.438C18.8997 10.6105 18.8464 10.7821 18.7359 10.9155C18.6254 11.0488 18.4666 11.1331 18.2943 11.1499C18.1219 11.1667 17.9498 11.1147 17.8157 11.0052L17.8069 10.9982C17.7051 10.9232 17.5996 10.8531 17.491 10.7882C17.1223 10.5714 16.7356 10.3866 16.3352 10.2361C15.2729 9.82747 13.6025 9.40484 11.233 9.40484C8.86353 9.40484 7.19316 9.82747 6.13178 10.2361C5.7311 10.3863 5.34409 10.5708 4.97503 10.7873C4.86673 10.8523 4.76161 10.9223 4.66003 10.9973L4.65041 11.0052C4.51622 11.1147 4.34418 11.1667 4.1718 11.1499C3.99942 11.1331 3.84068 11.0488 3.73017 10.9155C3.61967 10.7821 3.56637 10.6105 3.58189 10.438C3.59741 10.2655 3.6805 10.1061 3.81303 9.99459L3.81391 9.99372L3.81566 9.99197L3.81916 9.98934L3.82791 9.98234C3.86808 9.95018 3.90922 9.91925 3.95128 9.88959C4.03178 9.83184 4.14816 9.75397 4.30041 9.66209C4.63024 9.46659 4.97318 9.2941 5.32678 9.14584V8.70309C5.32678 7.91735 5.32678 7.2611 5.39678 6.74134C5.47028 6.19184 5.63303 5.69572 6.03116 5.2976C6.43016 4.8986 6.92628 4.73585 7.47491 4.66235C7.99553 4.59235 8.65178 4.59235 9.43753 4.59235ZM6.63928 8.68384C7.78991 8.35484 9.30891 8.09234 11.233 8.09234C13.1572 8.09234 14.6762 8.35397 15.8268 8.68384C15.8268 7.87622 15.8242 7.3276 15.7682 6.91635C15.7139 6.5121 15.6203 6.33885 15.5057 6.2251C15.3919 6.11135 15.2195 6.01772 14.8162 5.9626C14.3935 5.9066 13.8265 5.90485 12.983 5.90485H9.48303C8.63953 5.90485 8.07253 5.9066 7.64991 5.96347C7.24653 6.01772 7.07328 6.11135 6.95953 6.22597C6.84578 6.33972 6.75216 6.5121 6.69703 6.91547C6.64191 7.3276 6.63928 7.87622 6.63928 8.68384ZM2.48303 12.0298C2.65708 12.0298 2.824 12.099 2.94707 12.2221C3.07014 12.3451 3.13928 12.512 3.13928 12.6861C3.13928 14.3547 3.14103 15.5403 3.26178 16.4398C3.37991 17.3192 3.60216 17.8267 3.97228 18.1968C4.34241 18.567 4.84991 18.7892 5.73016 18.9073C6.62966 19.0281 7.81441 19.0298 9.48303 19.0298C9.65708 19.0298 9.824 19.099 9.94707 19.2221C10.0701 19.3451 10.1393 19.512 10.1393 19.6861C10.1393 19.8601 10.0701 20.0271 9.94707 20.1501C9.824 20.2732 9.65708 20.3423 9.48303 20.3423H9.43403C7.82578 20.3423 6.55178 20.3423 5.55516 20.2085C4.52966 20.0702 3.69928 19.7797 3.04391 19.1252C2.38941 18.4698 2.09891 17.6395 1.96066 16.614C1.82678 15.6165 1.82678 14.3433 1.82678 12.7351V12.6861C1.82678 12.512 1.89592 12.3451 2.01899 12.2221C2.14206 12.099 2.30898 12.0298 2.48303 12.0298ZM5.98303 12.0298C6.15708 12.0298 6.324 12.099 6.44707 12.2221C6.57014 12.3451 6.63928 12.512 6.63928 12.6861V13.1236C6.63928 13.9671 6.64103 14.5341 6.69791 14.9567C6.75216 15.3601 6.84578 15.5333 6.96041 15.6471C7.07416 15.7608 7.24653 15.8545 7.64991 15.9096C8.07253 15.9656 8.63953 15.9673 9.48303 15.9673H12.983C13.8265 15.9673 14.3935 15.9656 14.8162 15.9087C15.2195 15.8545 15.3928 15.7608 15.5065 15.6462C15.6203 15.5325 15.7139 15.3601 15.769 14.9567C15.825 14.5341 15.8268 13.9671 15.8268 13.1236V12.6861C15.8268 12.512 15.8959 12.3451 16.019 12.2221C16.1421 12.099 16.309 12.0298 16.483 12.0298C16.6571 12.0298 16.824 12.099 16.9471 12.2221C17.0701 12.3451 17.1393 12.512 17.1393 12.6861V13.1691C17.1393 13.9557 17.1393 14.6111 17.0693 15.1308C16.9958 15.6803 16.833 16.1765 16.434 16.5746C16.0359 16.9736 15.5398 17.1363 14.9903 17.2098C14.4705 17.2798 13.8143 17.2798 13.0285 17.2798H9.43753C8.65178 17.2798 7.99553 17.2798 7.47578 17.2098C6.92628 17.1363 6.43016 16.9736 6.03203 16.5746C5.63303 16.1765 5.47028 15.6803 5.39678 15.1308C5.32678 14.6111 5.32678 13.9548 5.32678 13.1691V12.6861C5.32678 12.512 5.39592 12.3451 5.51899 12.2221C5.64206 12.099 5.80898 12.0298 5.98303 12.0298ZM19.983 12.0298C20.1571 12.0298 20.324 12.099 20.4471 12.2221C20.5701 12.3451 20.6393 12.512 20.6393 12.6861V12.7351C20.6393 14.3433 20.6393 15.6173 20.5054 16.614C20.3672 17.6395 20.0767 18.4698 19.4222 19.1252C18.7668 19.7797 17.9364 20.0702 16.9109 20.2085C15.9134 20.3423 14.6403 20.3423 13.032 20.3423H12.983C12.809 20.3423 12.6421 20.2732 12.519 20.1501C12.3959 20.0271 12.3268 19.8601 12.3268 19.6861C12.3268 19.512 12.3959 19.3451 12.519 19.2221C12.6421 19.099 12.809 19.0298 12.983 19.0298C14.6517 19.0298 15.8373 19.0281 16.7368 18.9073C17.6162 18.7892 18.1237 18.567 18.4938 18.1968C18.8639 17.8267 19.0862 17.3192 19.2043 16.439C19.325 15.5403 19.3268 14.3547 19.3268 12.6861C19.3268 12.512 19.3959 12.3451 19.519 12.2221C19.6421 12.099 19.809 12.0298 19.983 12.0298Z" fill="#010101"/>
</svg>
