<svg width="26" height="26" viewBox="0 0 26 26" fill="none" xmlns="http://www.w3.org/2000/svg">
<g clip-path="url(#clip0_113_253)">
<path d="M13.0739 14.4225C13.9368 14.4225 14.6364 13.7229 14.6364 12.86C14.6364 11.997 13.9368 11.2975 13.0739 11.2975C12.2109 11.2975 11.5114 11.997 11.5114 12.86C11.5114 13.7229 12.2109 14.4225 13.0739 14.4225Z" fill="#FEF9F9"/>
<path d="M23.3759 11.11L22.553 8.485C22.4642 8.18162 22.3151 7.89924 22.1148 7.65471C21.9144 7.41017 21.6669 7.2085 21.3869 7.0617C21.1069 6.91491 20.8003 6.82601 20.4852 6.8003C20.1701 6.7746 19.8531 6.81261 19.553 6.91208L19.1989 7.02666C18.9214 7.11838 18.6259 7.14165 18.3375 7.09449C18.0491 7.04733 17.7764 6.93114 17.5426 6.75583L17.428 6.6725C17.1999 6.49788 17.016 6.2721 16.8911 6.01336C16.7663 5.75462 16.704 5.47015 16.7093 5.18291V4.89125C16.7143 4.2371 16.4596 3.60769 16.0009 3.14125C15.7828 2.92088 15.5232 2.74579 15.2372 2.62602C14.9512 2.50625 14.6444 2.44416 14.3343 2.44333H11.678C11.0407 2.45156 10.4324 2.71124 9.98568 3.16581C9.53891 3.62038 9.28981 4.23305 9.29261 4.87041V5.12041C9.29161 5.42278 9.22277 5.72107 9.09116 5.99329C8.95956 6.26552 8.76854 6.50474 8.53219 6.69333L8.39677 6.7975C8.13567 6.99502 7.83028 7.12578 7.50715 7.17843C7.18401 7.23108 6.8529 7.20401 6.54261 7.09958C6.25762 7.00096 5.95559 6.96119 5.65479 6.98267C5.35399 7.00416 5.06068 7.08646 4.79261 7.22458C4.5135 7.36311 4.26588 7.55759 4.06517 7.79594C3.86446 8.03428 3.71495 8.31138 3.62594 8.61L2.77177 11.3183C2.57369 11.929 2.62449 12.5931 2.91314 13.1665C3.20178 13.7398 3.70497 14.1762 4.31344 14.3808H4.48011C4.76079 14.486 5.01272 14.6559 5.21543 14.8767C5.41814 15.0975 5.56592 15.363 5.64677 15.6517L5.70927 15.8183C5.8254 16.1372 5.86423 16.4791 5.82258 16.8159C5.78093 17.1527 5.65999 17.4748 5.46969 17.7558C5.0845 18.2804 4.92203 18.9359 5.01761 19.5796C5.1132 20.2233 5.45911 20.8033 5.98011 21.1933L8.13636 22.8287C8.54464 23.1256 9.03785 23.2827 9.54261 23.2767C9.6777 23.2899 9.81376 23.2899 9.94886 23.2767C10.2615 23.2162 10.5585 23.0926 10.8217 22.9135C11.085 22.7344 11.309 22.5035 11.4801 22.235L11.7197 21.8912C11.8878 21.6502 12.1101 21.452 12.3689 21.3127C12.6276 21.1733 12.9155 21.0968 13.2093 21.0892C13.5171 21.0816 13.8219 21.1521 14.0952 21.2942C14.3684 21.4363 14.6012 21.6453 14.7718 21.9017L14.8968 22.0787C15.0744 22.3431 15.3042 22.5682 15.5721 22.7404C15.84 22.9125 16.1403 23.028 16.4545 23.0797C16.7688 23.1314 17.0902 23.1183 17.3992 23.0411C17.7081 22.9639 17.998 22.8243 18.2509 22.6308L20.3655 21.0475C20.8655 20.6592 21.198 20.0943 21.2948 19.4687C21.3917 18.8431 21.2455 18.2042 20.8864 17.6829L20.6155 17.2871C20.4527 17.0354 20.346 16.7516 20.3029 16.455C20.2597 16.1584 20.2811 15.8559 20.3655 15.5683C20.4516 15.2605 20.6113 14.9782 20.8309 14.7459C21.0505 14.5135 21.3234 14.3382 21.6259 14.235L21.8343 14.1621C22.4371 13.9529 22.935 13.5175 23.2227 12.948C23.5103 12.3784 23.5653 11.7193 23.3759 11.11ZM13.0739 16.5058C12.3528 16.5058 11.6479 16.292 11.0483 15.8914C10.4488 15.4908 9.98149 14.9214 9.70555 14.2552C9.4296 13.589 9.3574 12.856 9.49808 12.1487C9.63875 11.4415 9.98599 10.7919 10.4959 10.282C11.0057 9.77212 11.6554 9.42489 12.3626 9.28422C13.0698 9.14354 13.8029 9.21574 14.4691 9.49168C15.1352 9.76763 15.7046 10.2349 16.1053 10.8345C16.5059 11.434 16.7197 12.1389 16.7197 12.86C16.7197 13.8269 16.3356 14.7543 15.6519 15.438C14.9681 16.1217 14.0408 16.5058 13.0739 16.5058Z" fill="#010101"/>
</g>
<defs>
<clipPath id="clip0_113_253">
<rect width="25" height="25" fill="#010101" transform="translate(0.573853 0.359985)"/>
</clipPath>
</defs>
</svg>
