<svg width="35" height="35" viewBox="0 0 35 35" fill="none" xmlns="http://www.w3.org/2000/svg">
<path d="M25.875 23.2094C24.7983 23.2094 23.835 23.6344 23.0983 24.3002L12.9975 18.421C13.0683 18.0952 13.125 17.7694 13.125 17.4294C13.125 17.0894 13.0683 16.7635 12.9975 16.4377L22.985 10.6152C23.75 11.3235 24.7558 11.7627 25.875 11.7627C28.2267 11.7627 30.125 9.86436 30.125 7.5127C30.125 5.16103 28.2267 3.2627 25.875 3.2627C23.5233 3.2627 21.625 5.16103 21.625 7.5127C21.625 7.85269 21.6817 8.17853 21.7525 8.50436L11.765 14.3269C11 13.6185 9.99417 13.1794 8.875 13.1794C6.52333 13.1794 4.625 15.0777 4.625 17.4294C4.625 19.781 6.52333 21.6794 8.875 21.6794C9.99417 21.6794 11 21.2402 11.765 20.5319L21.8517 26.4252C21.7808 26.7227 21.7383 27.0344 21.7383 27.346C21.7383 29.6269 23.5942 31.4827 25.875 31.4827C28.1558 31.4827 30.0117 29.6269 30.0117 27.346C30.0117 25.0652 28.1558 23.2094 25.875 23.2094Z" fill="#ffffff"/>
</svg>
