<svg width="21" height="23" viewBox="0 0 21 23" fill="none" xmlns="http://www.w3.org/2000/svg">
<path fill-rule="evenodd" clip-rule="evenodd" d="M5.55697 4.82764V4.82764C5.55697 5.25911 5.20719 5.60889 4.77572 5.60889H3.48717C2.48717 5.60889 1.64967 6.36305 1.54447 7.35784L0.22884 19.8578C0.200226 20.1301 0.229155 20.4053 0.313752 20.6656C0.398349 20.926 0.536724 21.1656 0.719902 21.369C0.90308 21.5724 1.12697 21.7351 1.37705 21.8464C1.62713 21.9577 1.89781 22.0152 2.17155 22.0151H18.3174C18.5911 22.0152 18.8618 21.9577 19.1119 21.8464C19.362 21.7351 19.5858 21.5724 19.769 21.369C19.9522 21.1656 20.0906 20.926 20.1752 20.6656C20.2598 20.4053 20.2887 20.1301 20.2601 19.8578L18.9445 7.35784C18.894 6.87779 18.6676 6.43342 18.3088 6.11046C17.9501 5.7875 17.4845 5.60882 17.0018 5.60889H15.7132C15.2817 5.60889 14.932 5.25911 14.932 4.82764V4.82764C14.932 3.58443 14.4381 2.39215 13.559 1.51307C12.68 0.633997 11.4877 0.140137 10.2445 0.140137C9.00126 0.140137 7.80898 0.633997 6.9299 1.51307C6.05083 2.39215 5.55697 3.58443 5.55697 4.82764ZM10.2445 1.70264C9.41566 1.70264 8.62081 2.03188 8.03476 2.61793C7.44871 3.20398 7.11947 3.99884 7.11947 4.82764V4.82764C7.11947 5.25911 7.46924 5.60889 7.90072 5.60889H12.5882C13.0197 5.60889 13.3695 5.25911 13.3695 4.82764V4.82764C13.3695 3.99884 13.0402 3.20398 12.4542 2.61793C11.8681 2.03188 11.0733 1.70264 10.2445 1.70264ZM7.11947 10.2964C7.11947 11.1252 7.44871 11.92 8.03476 12.5061C8.62081 13.0921 9.41566 13.4214 10.2445 13.4214C11.0733 13.4214 11.8681 13.0921 12.4542 12.5061C13.0402 11.92 13.3695 11.1252 13.3695 10.2964V9.51514C13.3695 9.30794 13.4518 9.10922 13.5983 8.96271C13.7448 8.8162 13.9435 8.73389 14.1507 8.73389C14.3579 8.73389 14.5566 8.8162 14.7031 8.96271C14.8497 9.10922 14.932 9.30794 14.932 9.51514V10.2964C14.932 11.5396 14.4381 12.7319 13.559 13.6109C12.68 14.49 11.4877 14.9839 10.2445 14.9839C9.00126 14.9839 7.80898 14.49 6.9299 13.6109C6.05083 12.7319 5.55697 11.5396 5.55697 10.2964V9.51514C5.55697 9.30794 5.63928 9.10922 5.78579 8.96271C5.9323 8.8162 6.13101 8.73389 6.33822 8.73389C6.54542 8.73389 6.74413 8.8162 6.89064 8.96271C7.03715 9.10922 7.11947 9.30794 7.11947 9.51514V10.2964Z" fill="white"/>
</svg>
