<svg width="37" height="38" viewBox="0 0 37 38" fill="none" xmlns="http://www.w3.org/2000/svg">
<path fill-rule="evenodd" clip-rule="evenodd" d="M20.1664 14.5469C20.1665 14.3821 20.2154 14.221 20.3069 14.084C20.3985 13.947 20.5286 13.8402 20.6809 13.7771C20.8331 13.7141 21.0007 13.6976 21.1623 13.7297C21.3239 13.7618 21.4724 13.8412 21.5889 13.9577L26.4223 18.291C26.5785 18.4473 26.6663 18.6592 26.6663 18.8802C26.6663 19.1012 26.5785 19.3131 26.4223 19.4694L21.5889 23.8027C21.4724 23.9192 21.3239 23.9985 21.1623 24.0307C21.0007 24.0628 20.8331 24.0463 20.6809 23.9833C20.5286 23.9202 20.3985 23.8134 20.3069 23.6764C20.2154 23.5394 20.1665 23.3783 20.1664 23.2135V19.7135H13.1664C12.9454 19.7135 12.7335 19.6257 12.5772 19.4694C12.4209 19.3132 12.3331 19.1012 12.3331 18.8802C12.3331 18.6592 12.4209 18.4472 12.5772 18.2909C12.7335 18.1347 12.9454 18.0469 13.1664 18.0469H20.1664V14.5469Z" fill="white"/>
</svg>
