<svg width="45" height="45" viewBox="0 0 45 45" fill="none" xmlns="http://www.w3.org/2000/svg">
<circle cx="22.4073" cy="22.9351" r="21" stroke="#010101" stroke-width="2"/>
<path d="M32.2878 22.4941L22.8378 13.0441C22.4441 12.6535 21.9119 12.4346 21.3573 12.4351H14.0073C13.4504 12.4351 12.9163 12.6563 12.5224 13.0501C12.1286 13.444 11.9073 13.9781 11.9073 14.5351V21.8851C11.9071 22.1622 11.9618 22.4366 12.0681 22.6925C12.1744 22.9484 12.3303 23.1807 12.5268 23.3761L21.9768 32.8261C22.3706 33.2166 22.9028 33.4355 23.4573 33.4351C24.0134 33.4327 24.5458 33.2099 24.9378 32.8156L32.2878 25.4656C32.6822 25.0735 32.905 24.5411 32.9073 23.9851C32.9076 23.708 32.8529 23.4335 32.7466 23.1776C32.6403 22.9217 32.4844 22.6894 32.2878 22.4941ZM23.4573 31.3351L14.0073 21.8851V14.5351H21.3573L30.8073 23.9851M16.6323 15.5851C16.9439 15.5851 17.2484 15.6774 17.5074 15.8505C17.7664 16.0236 17.9683 16.2695 18.0875 16.5573C18.2067 16.8451 18.2379 17.1618 18.1771 17.4673C18.1163 17.7728 17.9663 18.0535 17.746 18.2738C17.5258 18.494 17.2451 18.644 16.9396 18.7048C16.6341 18.7656 16.3174 18.7344 16.0296 18.6152C15.7418 18.496 15.4958 18.2941 15.3228 18.0351C15.1497 17.7761 15.0573 17.4716 15.0573 17.1601C15.0573 16.7423 15.2233 16.3417 15.5187 16.0464C15.814 15.751 16.2146 15.5851 16.6323 15.5851Z" fill="#010101"/>
</svg>
