<svg width="35" height="35" viewBox="0 0 35 35" fill="none" xmlns="http://www.w3.org/2000/svg">
<path d="M7.70833 31.596C6.92917 31.596 6.26192 31.3188 5.70658 30.7644C5.15219 30.2091 4.875 29.5419 4.875 28.7627V8.92936H7.70833V28.7627H23.2917V31.596H7.70833ZM13.375 25.9294C12.5958 25.9294 11.9291 25.6522 11.3747 25.0978C10.8193 24.5424 10.5417 23.8752 10.5417 23.096V6.09603C10.5417 5.31686 10.8193 4.64961 11.3747 4.09428C11.9291 3.53989 12.5958 3.2627 13.375 3.2627H26.125C26.9042 3.2627 27.5714 3.53989 28.1267 4.09428C28.6811 4.64961 28.9583 5.31686 28.9583 6.09603V23.096C28.9583 23.8752 28.6811 24.5424 28.1267 25.0978C27.5714 25.6522 26.9042 25.9294 26.125 25.9294H13.375Z" fill="#ffffff"/>
</svg>
