<svg width="35" height="35" viewBox="0 0 35 35" fill="none" xmlns="http://www.w3.org/2000/svg">
<path d="M4.70216 13.6641C4.52298 13.6657 4.34657 13.6199 4.19083 13.5312C4.0766 13.467 3.97632 13.3807 3.89587 13.2773C3.81541 13.1738 3.75639 13.0554 3.72225 12.9289C3.68812 12.8024 3.67956 12.6703 3.69708 12.5405C3.71459 12.4106 3.75783 12.2855 3.82427 12.1726C5.10458 10.0356 8.99997 5.04785 17.5 5.04785C21.1835 5.04785 24.4142 6.01539 27.0977 7.92258C29.3063 9.48777 30.5441 11.2595 31.1338 12.1128C31.2086 12.2204 31.2611 12.3418 31.2883 12.47C31.3154 12.5981 31.3167 12.7304 31.2919 12.8591C31.2672 12.9877 31.2169 13.1101 31.1442 13.2191C31.0714 13.328 30.9776 13.4213 30.8682 13.4934C30.6447 13.6411 30.3724 13.696 30.1091 13.6465C29.8458 13.5969 29.6122 13.4467 29.4577 13.2278C28.3906 11.6931 25.1367 7.02344 17.5 7.02344C10.0459 7.02344 6.67575 11.3206 5.57806 13.1634C5.48986 13.3172 5.36217 13.4448 5.20819 13.5328C5.05421 13.6208 4.87951 13.6661 4.70216 13.6641Z" fill="#000"/>
<path d="M21.7825 33.1875C21.6978 33.1885 21.6132 33.1789 21.5308 33.159C15.365 31.6316 13.0627 25.4678 12.9691 25.2115L12.9545 25.155C12.904 24.9771 11.6669 20.7503 13.5661 18.2747C14.4367 17.1458 15.7608 16.5667 17.5093 16.5667C19.1349 16.5667 20.3076 17.0721 21.1138 18.1179C21.7779 18.9719 22.0435 20.0251 22.3005 21.0398C22.8404 23.1529 23.2302 24.2625 25.474 24.3767C26.4595 24.4265 27.107 23.8501 27.4742 23.3594C28.467 22.0213 28.6396 19.8399 27.8912 17.9141C26.9297 15.4285 23.517 10.7422 17.5 10.7422C14.9314 10.7422 12.5713 11.5676 10.6787 13.1189C9.11221 14.4038 7.87107 16.2181 7.27342 18.0828C6.1651 21.5545 7.61873 27.0117 7.63267 27.0615C7.66662 27.1886 7.67478 27.3211 7.65669 27.4513C7.6386 27.5815 7.59462 27.7068 7.52735 27.8197C7.46007 27.9327 7.37087 28.031 7.26498 28.1089C7.1591 28.1869 7.03868 28.2428 6.91084 28.2735C6.65256 28.3421 6.37765 28.3069 6.14503 28.1753C5.91241 28.0438 5.74059 27.8263 5.66639 27.5695C5.59998 27.3205 4.0474 21.5 5.32771 17.4878C6.72224 13.1401 11.026 8.75732 17.502 8.75732C20.4949 8.75732 23.3225 9.77467 25.6826 11.6958C27.5101 13.1899 29.0029 15.1967 29.7838 17.2029C30.7766 19.7642 30.5103 22.6389 29.1071 24.5169C28.1721 25.7693 26.8407 26.424 25.3658 26.353C21.5235 26.1604 20.8329 23.4783 20.3295 21.5219C19.8116 19.5151 19.4802 18.5476 17.502 18.5476C16.4156 18.5476 15.6526 18.8464 15.1778 19.4653C14.5303 20.312 14.4798 21.6355 14.5515 22.5957C14.5986 23.2647 14.7121 23.9274 14.8902 24.574C15.0483 24.9724 17.1062 30.0193 22.0349 31.2405C22.1623 31.2707 22.2824 31.3259 22.3883 31.4029C22.4941 31.4799 22.5837 31.5771 22.6516 31.689C22.7196 31.8009 22.7646 31.9252 22.7842 32.0547C22.8037 32.1841 22.7973 32.3161 22.7653 32.4431C22.7052 32.6574 22.5766 32.8462 22.3991 32.9806C22.2217 33.115 22.0051 33.1877 21.7825 33.1875Z" fill="#000"/>
<path d="M13.8682 32.732C13.73 32.7323 13.5931 32.7047 13.4658 32.651C13.3385 32.5973 13.2233 32.5184 13.1271 32.4192C10.6594 29.8294 9.26357 26.9334 8.7383 23.3123V23.293C8.44345 20.8957 8.8751 17.5017 10.9901 15.1682C12.5513 13.4463 14.7461 12.571 17.5019 12.571C20.7612 12.571 23.3224 14.0864 24.9195 16.9466C26.0783 19.0244 26.3081 21.095 26.314 21.18C26.3262 21.311 26.3124 21.4432 26.2734 21.5689C26.2344 21.6946 26.1709 21.8114 26.0867 21.9125C26.0025 22.0137 25.8992 22.0972 25.7827 22.1584C25.6661 22.2196 25.5387 22.2572 25.4076 22.269C25.1431 22.2977 24.8779 22.2213 24.6693 22.0561C24.4607 21.891 24.3254 21.6505 24.2926 21.3865C24.1177 20.1441 23.7157 18.9445 23.1066 17.8477C21.8688 15.6636 19.9855 14.5533 17.4946 14.5533C15.3431 14.5533 13.6597 15.2007 12.5015 16.4791C10.8321 18.3218 10.5094 21.1607 10.7385 23.0387C11.1986 26.2408 12.4292 28.7881 14.602 31.0645C14.6927 31.1589 14.7634 31.2705 14.8101 31.3927C14.8568 31.515 14.8785 31.6454 14.8738 31.7761C14.869 31.9069 14.8381 32.0354 14.7827 32.154C14.7274 32.2725 14.6487 32.3788 14.5515 32.4664C14.3643 32.6361 14.1209 32.7307 13.8682 32.732Z" fill="#000"/>
<path d="M25.2363 29.8791C23.0781 29.8791 21.2433 29.2815 19.7751 28.0935C16.8253 25.7168 16.4946 21.846 16.48 21.6826C16.4592 21.4145 16.5458 21.1491 16.7207 20.9448C16.8956 20.7405 17.1445 20.614 17.4127 20.5932C17.6808 20.5724 17.9462 20.659 18.1505 20.8339C18.3548 21.0089 18.4813 21.2578 18.5021 21.5259C18.5094 21.583 18.8042 24.7493 21.078 26.5728C22.4233 27.6472 24.2216 28.0736 26.4376 27.8245C26.7025 27.7924 26.9692 27.8664 27.1797 28.0304C27.3901 28.1945 27.527 28.4351 27.5605 28.6998C27.575 28.8305 27.5634 28.9628 27.5262 29.089C27.489 29.2152 27.4271 29.3327 27.344 29.4347C27.2609 29.5367 27.1583 29.6211 27.0423 29.6831C26.9262 29.745 26.799 29.7832 26.668 29.7955C26.1928 29.8509 25.7148 29.8789 25.2363 29.8791ZM26.9416 3.48996C26.0996 2.94211 23.114 1.3125 17.5 1.3125C11.6071 1.3125 8.61417 3.11277 7.9521 3.57031C7.90837 3.59715 7.86744 3.6283 7.82991 3.66328C7.82595 3.66711 7.82079 3.66946 7.8153 3.66992C7.70958 3.76223 7.62475 3.87601 7.56646 4.00369C7.50818 4.13137 7.47778 4.27 7.47729 4.41035C7.47911 4.54191 7.50687 4.67183 7.55898 4.79264C7.6111 4.91346 7.68654 5.0228 7.78098 5.11441C7.87543 5.20602 7.98702 5.27809 8.10937 5.32649C8.23172 5.3749 8.36242 5.39868 8.49397 5.39648C8.70484 5.39634 8.91061 5.33169 9.08366 5.21121C9.11222 5.18996 11.6881 3.29738 17.502 3.29738C23.3158 3.29738 25.9057 5.18332 25.9336 5.19727C26.1104 5.32837 26.3251 5.39831 26.5452 5.39648C26.6769 5.3985 26.8076 5.3745 26.93 5.32585C27.0524 5.2772 27.1639 5.20487 27.2582 5.113C27.3526 5.02112 27.4279 4.91153 27.4797 4.79049C27.5316 4.66946 27.5591 4.53937 27.5605 4.4077C27.5606 4.21046 27.5017 4.01771 27.3914 3.85418C27.2811 3.69066 27.1245 3.56382 26.9416 3.48996Z" fill="#000"/>
</svg>
