<svg width="45" height="44" viewBox="0 0 45 44" fill="none" xmlns="http://www.w3.org/2000/svg">
<g clip-path="url(#clip0_40_253)">
<path opacity="0.2" fill-rule="evenodd" clip-rule="evenodd" d="M25.7998 5.5C26.189 5.50001 26.5712 5.60326 26.9074 5.79921C27.2437 5.99516 27.5219 6.2768 27.7138 6.6154L32.8046 15.587L42.764 17.7342C43.1395 17.8153 43.4872 17.9933 43.7726 18.2506C44.0579 18.5078 44.2709 18.8353 44.3904 19.2004C44.5099 19.5655 44.5317 19.9555 44.4536 20.3317C44.3755 20.7078 44.2003 21.057 43.9454 21.3444L37.1122 29.0488L38.1858 39.3734C38.2256 39.7584 38.1632 40.147 38.0049 40.5002C37.8465 40.8533 37.5977 41.1584 37.2838 41.3847C36.9698 41.611 36.6017 41.7504 36.2166 41.789C35.8314 41.8275 35.443 41.7638 35.0904 41.6042L25.7998 37.3934L16.5092 41.6042C16.1566 41.7638 15.7681 41.8275 15.383 41.789C14.9979 41.7504 14.6298 41.611 14.3158 41.3847C14.0018 41.1584 13.7531 40.8533 13.5947 40.5002C13.4364 40.147 13.3739 39.7584 13.4138 39.3734L14.4874 29.0488L7.6542 21.3444C7.39928 21.057 7.22408 20.7078 7.146 20.3317C7.06793 19.9555 7.08972 19.5655 7.2092 19.2004C7.32868 18.8353 7.54169 18.5078 7.82703 18.2506C8.11237 17.9933 8.46009 17.8153 8.8356 17.7342L18.795 15.587L23.8858 6.6154C24.0777 6.2768 24.3559 5.99516 24.6922 5.79921C25.0284 5.60326 25.4106 5.50001 25.7998 5.5ZM25.7998 12.1572L22.1346 18.6164C21.9816 18.886 21.7733 19.1202 21.5235 19.3037C21.2736 19.4872 20.9878 19.6159 20.6848 19.6812L13.4446 21.2432L18.421 26.8532C18.6236 27.0818 18.7763 27.3501 18.8695 27.641C18.9626 27.9319 18.9942 28.239 18.9622 28.5428L18.1878 36.014L24.8912 32.9758C25.1766 32.8464 25.4864 32.7794 25.7998 32.7794C26.1132 32.7794 26.423 32.8464 26.7084 32.9758L33.4118 36.0118L32.6352 28.5406C32.6041 28.2374 32.6363 27.931 32.7299 27.6409C32.8234 27.3508 32.9762 27.0833 33.1786 26.8554L38.155 21.2432L30.9148 19.6812C30.6114 19.6162 30.3251 19.4877 30.0749 19.3041C29.8246 19.1206 29.616 18.8863 29.4628 18.6164L25.7998 12.1572Z" fill="#9ACFFF"/>
<path fill-rule="evenodd" clip-rule="evenodd" d="M22.5 4.3999C22.6945 4.3998 22.8855 4.45126 23.0536 4.54903C23.2217 4.64681 23.3609 4.78741 23.457 4.9565L28.792 14.3593L39.231 16.6099C39.4188 16.6501 39.5928 16.7388 39.7357 16.8672C39.8786 16.9955 39.9854 17.1591 40.0455 17.3415C40.1056 17.5239 40.1168 17.7189 40.0781 17.9071C40.0394 18.0952 39.9522 18.27 39.825 18.4139L32.6684 26.4813L33.7904 37.2855C33.8102 37.4778 33.779 37.672 33.6998 37.8484C33.6207 38.0249 33.4964 38.1773 33.3396 38.2904C33.1828 38.4035 32.9989 38.4733 32.8065 38.4927C32.6141 38.5121 32.42 38.4804 32.2438 38.4009L22.5 33.9855L12.7562 38.4009C12.5798 38.481 12.3855 38.513 12.1928 38.4939C12 38.4748 11.8158 38.4051 11.6586 38.2919C11.5015 38.1787 11.377 38.0261 11.2978 37.8493C11.2185 37.6726 11.1873 37.4781 11.2074 37.2855L12.3294 26.4835L5.17937 18.4139C5.05219 18.2701 4.96485 18.0955 4.92604 17.9075C4.88723 17.7195 4.89829 17.5247 4.95812 17.3423C5.01796 17.1598 5.12449 16.9963 5.26712 16.8678C5.40976 16.7393 5.58353 16.6504 5.77117 16.6099L16.208 14.3593L21.543 4.9565C21.639 4.78741 21.7782 4.64681 21.9463 4.54903C22.1145 4.45126 22.3055 4.3998 22.5 4.3999ZM22.5 7.7285L17.88 15.8729C17.8034 16.0078 17.6991 16.125 17.5739 16.2168C17.4488 16.3085 17.3057 16.3728 17.154 16.4053L8.07237 18.3633L14.2984 25.3835C14.3997 25.4978 14.476 25.632 14.5226 25.7774C14.5692 25.9229 14.585 26.0764 14.569 26.2283L13.5944 35.6069L22.0468 31.7789C22.1892 31.7145 22.3437 31.6812 22.5 31.6812C22.6563 31.6812 22.8108 31.7145 22.9532 31.7789L31.4056 35.6069L30.431 26.2283C30.415 26.0764 30.4307 25.9229 30.4773 25.7774C30.5239 25.632 30.6003 25.4978 30.7016 25.3835L36.9276 18.3633L27.846 16.4053C27.6943 16.3728 27.5511 16.3085 27.426 16.2168C27.3009 16.125 27.1966 16.0078 27.12 15.8729L22.5 7.7285Z" fill="#FFCE05"/>
</g>
<defs>
<clipPath id="clip0_40_253">
<rect width="44" height="44" fill="white" transform="translate(0.5)"/>
</clipPath>
</defs>
</svg>
