<svg width="283" height="71" viewBox="0 0 283 71" fill="none" xmlns="http://www.w3.org/2000/svg">
<ellipse cx="248.239" cy="35.6206" rx="33.858" ry="33.4313" fill="url(#paint0_linear_68_3)"/>
<path d="M46.712 3.45802C64.9475 7.2644 96.8732 14.0719 120.295 19.8462C120.741 19.9562 121.045 20.3545 121.045 20.8143V57.7764C121.045 58.2821 120.668 58.7083 120.166 58.7691L32.3701 69.4125C21.8344 69.7051 0.762939 58.6625 0.762939 38.4691C0.762939 21.6092 9.70662 11.5944 18.8538 6.01426C27.1069 0.979596 37.2485 1.48264 46.712 3.45802Z" fill="#19233F"/>
<path d="M234.175 3.45802C215.94 7.2644 184.014 14.0719 160.592 19.8462C160.146 19.9562 159.842 20.3545 159.842 20.8143V57.7764C159.842 58.2821 160.219 58.7083 160.722 58.7691L248.517 69.4125C259.053 69.7051 280.124 58.6625 280.124 38.4691C280.124 21.6092 271.181 11.5944 262.033 6.01426C253.78 0.979596 243.639 1.48264 234.175 3.45802Z" fill="#19233F"/>
<rect x="119.148" y="6.90196" width="42.8976" height="63.7091" rx="21.4488" fill="#293351"/>
<defs>
<linearGradient id="paint0_linear_68_3" x1="213.221" y1="35.6206" x2="282.097" y2="35.6206" gradientUnits="userSpaceOnUse">
<stop stop-color="#00A3FF"/>
<stop offset="0.5" stop-color="#0094FF"/>
<stop offset="0.979167" stop-color="#2CCCFE"/>
</linearGradient>
</defs>
</svg>
