<svg width="54" height="55" viewBox="0 0 54 55" fill="none" xmlns="http://www.w3.org/2000/svg">
<g clip-path="url(#clip0_80_2596)">
<path d="M46.5231 0.827148H7.47692C3.34753 0.827148 0 4.17468 0 8.30407V47.3502C0 51.4796 3.34753 54.8271 7.47692 54.8271H46.5231C50.6525 54.8271 54 51.4796 54 47.3502V8.30407C54 4.17468 50.6525 0.827148 46.5231 0.827148Z" fill="#19233F"/>
<path d="M18.9478 12.873L6.85385 24.9059L26.9988 44.9493L47.1462 24.9059L35.0522 12.873H18.9478Z" fill="#2DE370"/>
<path d="M18.3112 20.6861C23.0692 15.9223 30.7823 15.9223 35.5403 20.6861L39.6503 24.801L35.5403 28.9158C30.7823 33.6796 23.0692 33.6796 18.3112 28.9158L14.2012 24.801L18.3112 20.6861Z" fill="#9ACFFF"/>
<path fill-rule="evenodd" clip-rule="evenodd" d="M27.0584 29.8417C24.2767 29.8417 22.0227 27.646 22.0227 24.9375C22.0227 22.229 24.2767 20.0332 27.0584 20.0332C29.84 20.0332 32.0964 22.229 32.0964 24.9375C32.0964 27.646 29.84 29.8417 27.0584 29.8417Z" fill="white"/>
<path d="M26.9867 26.9229C25.8157 26.9229 24.8668 25.974 24.8668 24.8022C24.8668 23.6304 25.8157 22.6816 26.9867 22.6816C28.1577 22.6816 29.1087 23.6304 29.1087 24.8022C29.1087 25.974 28.1577 26.9229 26.9867 26.9229Z" fill="#9ACFFF"/>
</g>
<defs>
<clipPath id="clip0_80_2596">
<rect width="54" height="54" fill="white" transform="translate(0 0.827148)"/>
</clipPath>
</defs>
</svg>
