<svg width="28" height="28" viewBox="0 0 28 28" fill="none" xmlns="http://www.w3.org/2000/svg">
<path d="M13.6411 2.06018C7.05986 2.06018 1.82861 7.29143 1.82861 13.8727C1.82861 20.4539 7.05986 25.6852 13.6411 25.6852C20.2224 25.6852 25.4536 20.4539 25.4536 13.8727C25.4536 7.29143 20.2224 2.06018 13.6411 2.06018ZM13.6411 23.9977C8.07236 23.9977 3.51611 19.4414 3.51611 13.8727C3.51611 8.30393 8.07236 3.74768 13.6411 3.74768C19.2099 3.74768 23.7661 8.30393 23.7661 13.8727C23.7661 19.4414 19.2099 23.9977 13.6411 23.9977Z" fill="#19233F"/>
<path d="M18.1974 19.7789L13.6411 15.2227L9.08486 19.7789L7.73486 18.4289L12.2911 13.8727L7.73486 9.31643L9.08486 7.96643L13.6411 12.5227L18.1974 7.96643L19.5474 9.31643L14.9911 13.8727L19.5474 18.4289L18.1974 19.7789Z" fill="#19233F"/>
</svg>
