<svg width="65" height="59" viewBox="0 0 65 59" fill="none" xmlns="http://www.w3.org/2000/svg">
<path d="M41.46 5.75419L62.9033 41.4696C65.9849 46.5992 64.4713 53.3481 59.5209 56.5417C57.8594 57.6175 55.9227 58.1909 53.9433 58.1929H11.0534C5.22618 58.1929 0.499756 53.2969 0.499756 47.252C0.499756 45.2072 1.05336 43.2072 2.09336 41.4696L23.5399 5.75419C26.6183 0.624565 33.1271 -0.946645 38.0776 2.24697C39.4472 3.13018 40.6056 4.33019 41.46 5.75419ZM32.4999 45.3928C33.3486 45.3928 34.1626 45.0557 34.7627 44.4556C35.3628 43.8554 35.7 43.0415 35.7 42.1928C35.7 41.3441 35.3628 40.5302 34.7627 39.93C34.1626 39.3299 33.3486 38.9928 32.4999 38.9928C31.6512 38.9928 30.8373 39.3299 30.2372 39.93C29.6371 40.5302 29.2999 41.3441 29.2999 42.1928C29.2999 43.0415 29.6371 43.8554 30.2372 44.4556C30.8373 45.0557 31.6512 45.3928 32.4999 45.3928ZM32.4999 16.5927C31.6512 16.5927 30.8373 16.9298 30.2372 17.5299C29.6371 18.13 29.2999 18.944 29.2999 19.7927V32.5927C29.2999 33.4414 29.6371 34.2554 30.2372 34.8555C30.8373 35.4556 31.6512 35.7928 32.4999 35.7928C33.3486 35.7928 34.1626 35.4556 34.7627 34.8555C35.3628 34.2554 35.7 33.4414 35.7 32.5927V19.7927C35.7 18.944 35.3628 18.13 34.7627 17.5299C34.1626 16.9298 33.3486 16.5927 32.4999 16.5927Z" fill="grey"/>
</svg>
