<svg width="21" height="22" viewBox="0 0 21 22" fill="none" xmlns="http://www.w3.org/2000/svg">
<path fill-rule="evenodd" clip-rule="evenodd" d="M5.55697 4.6875V4.6875C5.55697 5.11897 5.20719 5.46875 4.77572 5.46875H3.48717C2.48717 5.46875 1.64967 6.22292 1.54447 7.21771L0.22884 19.7177C0.200226 19.9899 0.229155 20.2652 0.313752 20.5255C0.398349 20.7858 0.536724 21.0255 0.719902 21.2289C0.90308 21.4323 1.12697 21.5949 1.37705 21.7062C1.62713 21.8175 1.89781 21.875 2.17155 21.875H18.3174C18.5911 21.875 18.8618 21.8175 19.1119 21.7062C19.362 21.5949 19.5858 21.4323 19.769 21.2289C19.9522 21.0255 20.0906 20.7858 20.1752 20.5255C20.2598 20.2652 20.2887 19.9899 20.2601 19.7177L18.9445 7.21771C18.894 6.73765 18.6676 6.29328 18.3088 5.97032C17.9501 5.64736 17.4845 5.46868 17.0018 5.46875H15.7132C15.2817 5.46875 14.932 5.11897 14.932 4.6875V4.6875C14.932 3.4443 14.4381 2.25201 13.559 1.37294C12.68 0.49386 11.4877 0 10.2445 0C9.00126 0 7.80898 0.49386 6.9299 1.37294C6.05083 2.25201 5.55697 3.4443 5.55697 4.6875ZM10.2445 1.5625C9.41566 1.5625 8.62081 1.89174 8.03476 2.47779C7.44871 3.06384 7.11947 3.8587 7.11947 4.6875V4.6875C7.11947 5.11897 7.46924 5.46875 7.90072 5.46875H12.5882C13.0197 5.46875 13.3695 5.11897 13.3695 4.6875V4.6875C13.3695 3.8587 13.0402 3.06384 12.4542 2.47779C11.8681 1.89174 11.0733 1.5625 10.2445 1.5625ZM7.11947 10.1562C7.11947 10.9851 7.44871 11.7799 8.03476 12.366C8.62081 12.952 9.41566 13.2812 10.2445 13.2812C11.0733 13.2812 11.8681 12.952 12.4542 12.366C13.0402 11.7799 13.3695 10.9851 13.3695 10.1562V9.375C13.3695 9.1678 13.4518 8.96909 13.5983 8.82257C13.7448 8.67606 13.9435 8.59375 14.1507 8.59375C14.3579 8.59375 14.5566 8.67606 14.7031 8.82257C14.8497 8.96909 14.932 9.1678 14.932 9.375V10.1562C14.932 11.3995 14.4381 12.5917 13.559 13.4708C12.68 14.3499 11.4877 14.8437 10.2445 14.8437C9.00126 14.8437 7.80898 14.3499 6.9299 13.4708C6.05083 12.5917 5.55697 11.3995 5.55697 10.1562V9.375C5.55697 9.1678 5.63928 8.96909 5.78579 8.82257C5.9323 8.67606 6.13101 8.59375 6.33822 8.59375C6.54542 8.59375 6.74413 8.67606 6.89064 8.82257C7.03715 8.96909 7.11947 9.1678 7.11947 9.375V10.1562Z" fill="url(#paint0_linear_108_9)"/>
<defs>
<linearGradient id="paint0_linear_108_9" x1="-0.125371" y1="10.9375" x2="20.2708" y2="10.9375" gradientUnits="userSpaceOnUse">
<stop stop-color="#00A3FF"/>
<stop offset="0.5" stop-color="#0094FF"/>
<stop offset="0.979167" stop-color="#2CCCFE"/>
</linearGradient>
</defs>
</svg>
