<svg width="28" height="28" viewBox="0 0 28 28" fill="none" xmlns="http://www.w3.org/2000/svg">
<path d="M20.667 19.2847C19.5486 19.2847 18.642 18.3781 18.642 17.2597V12.5234C18.642 11.9047 18.1357 11.3984 17.517 11.3984C16.8982 11.3984 16.392 11.9047 16.392 12.5234V17.2709C16.392 18.3831 15.4904 19.2847 14.3782 19.2847C13.872 19.2847 13.6245 19.8922 13.9845 20.2409L17.1232 23.3684C17.3482 23.5822 17.697 23.5822 17.922 23.3684L21.0607 20.2409C21.4207 19.8922 21.162 19.2847 20.667 19.2847ZM10.3732 3.91718L7.2345 7.05593C6.8745 7.40468 7.122 8.01218 7.62825 8.01218C8.74041 8.01218 9.642 8.91377 9.642 10.0259V14.7734C9.642 15.3922 10.1482 15.8984 10.767 15.8984C11.3857 15.8984 11.892 15.3922 11.892 14.7734V10.0259C11.892 8.91377 12.7936 8.01218 13.9057 8.01218C14.412 8.01218 14.6595 7.40468 14.2995 7.05593L11.1607 3.91718C11.0555 3.81438 10.9141 3.75684 10.767 3.75684C10.6198 3.75684 10.4785 3.81438 10.3732 3.91718Z" fill="url(#paint0_linear_95_1804)"/>
<defs>
<linearGradient id="paint0_linear_95_1804" x1="6.82137" y1="13.6428" x2="21.2288" y2="13.6428" gradientUnits="userSpaceOnUse">
<stop stop-color="#5CB9FF"/>
<stop offset="0.979167" stop-color="#0091FF"/>
</linearGradient>
</defs>
</svg>
