<svg width="90" height="89" viewBox="0 0 90 89" fill="none" xmlns="http://www.w3.org/2000/svg">
<circle cx="44.8448" cy="44.3548" r="44.2034" fill="#0B65C6"/>
<path d="M43.7756 14.087C44.0922 13.8471 44.4642 13.7191 44.8448 13.7191C45.2254 13.7191 45.5974 13.8471 45.914 14.087C51.5316 18.3415 58.9369 22.5324 68.1532 23.5785C68.6287 23.6323 69.0697 23.8849 69.3904 24.2873C69.7112 24.6897 69.8889 25.2132 69.8889 25.7561V44.3582C69.8889 52.8495 65.7971 60.0496 60.8326 65.2495C55.8777 70.4406 49.7804 73.94 45.1993 74.916L44.8448 74.9904L44.4903 74.916C39.9092 73.94 33.8119 70.4406 28.857 65.2495C23.8925 60.0496 19.8007 52.8495 19.8007 44.3582V25.7561C19.8007 25.2135 19.978 24.6903 20.2984 24.288C20.6188 23.8856 21.0593 23.6328 21.5345 23.5785C30.7526 22.5324 38.1599 18.3415 43.7756 14.087ZM23.6536 27.6994V44.3582C23.6536 51.1863 26.9575 57.3053 31.4693 62.0324C35.852 66.6239 41.1151 69.6265 44.8448 70.5325C48.5744 69.6243 53.8376 66.6239 58.2203 62.0324C62.7321 57.3053 66.036 51.1863 66.036 44.3582V27.6994C57.3746 26.3513 50.3044 22.4908 44.8448 18.5209C39.3852 22.4908 32.315 26.3513 23.6536 27.6994Z" fill="white" stroke="white" stroke-width="2"/>
</svg>
