<svg width="20" height="20" viewBox="0 0 20 20" fill="none" xmlns="http://www.w3.org/2000/svg">
<path d="M15.0573 0.484985H4.64067C2.33858 0.484985 0.473999 2.34957 0.473999 4.65165V15.0683C0.473999 17.3704 2.33858 19.235 4.64067 19.235H17.1407C18.2969 19.235 19.224 18.3079 19.224 17.1517V6.73499C19.224 6.18245 19.0045 5.65255 18.6138 5.26185C17.9748 4.62287 17.1407 3.9191 17.1407 3.01544V2.56832C17.1407 2.01578 16.9212 1.48588 16.5305 1.09518C16.1398 0.704479 15.6099 0.484985 15.0573 0.484985ZM15.0573 2.56832C15.0573 3.71891 14.1246 4.65165 12.974 4.65165H4.64067C4.08049 4.65165 3.54859 4.76471 3.0616 4.96584C2.83043 5.06131 2.55733 4.90177 2.55733 4.65165C2.55733 3.50582 3.49483 2.56832 4.64067 2.56832M13.4948 13.5058C12.6302 13.5058 11.9323 12.8079 11.9323 11.9433C11.9323 11.0787 12.6302 10.3808 13.4948 10.3808C14.3594 10.3808 15.0573 11.0787 15.0573 11.9433C15.0573 12.8079 14.3594 13.5058 13.4948 13.5058Z" fill="#000"/>
</svg>
