<svg xmlns="http://www.w3.org/2000/svg" width="93.333" height="93.333" viewBox="0 0 93.333 93.333">
  <g id="Group_708_1_" data-name="Group 708 (1)" transform="translate(-0.333 -0.533)">
    <path id="Path_694" data-name="Path 694" d="M73.5,38.366H51.417" fill="none" stroke="#434244" stroke-linecap="round" stroke-width="5"/>
    <path id="Path_695" data-name="Path 695" d="M38.167,7.45H66.875a33.3,33.3,0,0,1,3.938.113A13.25,13.25,0,0,1,82.22,18.97a33.259,33.259,0,0,1,.113,3.938" fill="none" stroke="#434244" stroke-width="5"/>
    <path id="Path_696" data-name="Path 696" d="M2.833,24.894a44.354,44.354,0,0,1,.306-7.47A17.667,17.667,0,0,1,17.225,3.339a44.358,44.358,0,0,1,7.47-.306c1.708,0,2.562,0,3.382.077A17.666,17.666,0,0,1,37.707,7.1c.634.526,1.238,1.13,2.446,2.337l2.431,2.43c3.6,3.6,5.4,5.4,7.562,6.6a17.671,17.671,0,0,0,3.747,1.552c2.374.677,4.922.677,10.017.677h1.651c11.626,0,17.439,0,21.218,3.4a13.172,13.172,0,0,1,.991.991c3.4,3.779,3.4,9.592,3.4,21.218v9.726c0,16.656,0,24.985-5.174,30.159s-13.5,5.175-30.159,5.175H38.167c-16.656,0-24.984,0-30.159-5.175s-5.174-13.5-5.174-30.159Z" fill="none" stroke="#7b7b7b" stroke-width="5"/>
  </g>
</svg>
