<svg xmlns="http://www.w3.org/2000/svg" width="24" height="24" viewBox="0 0 24 24">
  <g id="Group_36923" data-name="Group 36923" transform="translate(10658 -4592)">
    <g id="_78b3224f1c7fb3516fa4d2b5a2b212ea" data-name="78b3224f1c7fb3516fa4d2b5a2b212ea" transform="translate(-10829.898 4501.11)">
      <path id="Path_678" data-name="Path 678" d="M183.9,92a1.743,1.743,0,0,0-.519,3.408v1.966a5.509,5.509,0,0,0-2.72,1.025l-.944-2.441a.519.519,0,0,0-.484-.331h-2.81a1.744,1.744,0,1,0,0,1.037h2.452l.955,2.469a5.521,5.521,0,0,0-1.448,3.237h-1.96a1.744,1.744,0,1,0,0,1.037h1.959q.017.184.046.365a.519.519,0,1,0,1.024-.164,4.506,4.506,0,0,1,8.736-2.1.518.518,0,1,0,.986-.319,5.532,5.532,0,0,0-1.2-2.053l.955-2.47h2.452a1.744,1.744,0,1,0,0-1.037h-2.81a.519.519,0,0,0-.483.331l-.945,2.442a5.515,5.515,0,0,0-2.727-1.027V95.408A1.743,1.743,0,0,0,183.9,92Zm0,1.037a.707.707,0,1,1-.707.707A.7.7,0,0,1,183.9,93.037Zm-9.14,2.4a.707.707,0,1,1-.707.707A.7.7,0,0,1,174.756,95.442Zm18.285,0a.707.707,0,1,1-.707.707A.7.7,0,0,1,193.041,95.442Zm-18.285,6.74a.707.707,0,1,1-.707.707A.7.7,0,0,1,174.756,102.182Zm13.872,1.77a.519.519,0,0,0-.455.354,4.506,4.506,0,0,1-7.871,1.3.519.519,0,1,0-.827.626c.11.145.228.284.351.417l-.953,2.463h-2.452a1.744,1.744,0,1,0,0,1.037h2.81a.519.519,0,0,0,.484-.331l.942-2.436a5.518,5.518,0,0,0,2.724,1.022l0,1.967a1.744,1.744,0,1,0,1.037,0l0-1.966a5.515,5.515,0,0,0,2.724-1.029l.945,2.442a.519.519,0,0,0,.483.331h2.81a1.744,1.744,0,1,0,0-1.037h-2.452l-.955-2.469a5.527,5.527,0,0,0,1.188-2.01.519.519,0,0,0-.53-.681Zm-13.872,4.969a.707.707,0,1,1-.707.707A.7.7,0,0,1,174.756,108.921Zm18.285,0a.707.707,0,1,1-.707.707A.7.7,0,0,1,193.041,108.921Zm-9.146,2.407a.707.707,0,1,1-.707.707A.7.7,0,0,1,183.9,111.328Z" fill="#000" fill-rule="evenodd"/>
      <path id="Path_679" data-name="Path 679" d="M192.413,105.629a.519.519,0,0,0-.522.516v.619a1.657,1.657,0,0,0-1.188,1.562,1.684,1.684,0,0,0,1.71,1.642.613.613,0,1,1-.667.611.513.513,0,0,0-.152-.365.525.525,0,0,0-.369-.151.519.519,0,0,0-.521.517,1.657,1.657,0,0,0,1.188,1.562v.619a.522.522,0,0,0,1.043,0v-.619a1.657,1.657,0,0,0,1.189-1.562,1.685,1.685,0,0,0-1.711-1.642.613.613,0,1,1,.667-.611.513.513,0,0,0,.152.365.526.526,0,0,0,.738,0,.513.513,0,0,0,.152-.365,1.657,1.657,0,0,0-1.189-1.562v-.619a.519.519,0,0,0-.522-.516Z" transform="translate(-8.517 -6.561)" fill="#000" fill-rule="evenodd"/>
      <path id="Path_680" data-name="Path 680" d="M0,1.744A1.754,1.754,0,0,0,1.226,3.408v.741a.519.519,0,1,0,1.037,0v-.74A1.743,1.743,0,0,0,1.744,0,1.752,1.752,0,0,0,0,1.744Zm1.037,0a.707.707,0,1,1,.707.707A.7.7,0,0,1,1.037,1.744Z" transform="translate(194.785 101.146) rotate(90)" fill="#000" fill-rule="evenodd"/>
      <path id="Path_681" data-name="Path 681" d="M203.519,112a.519.519,0,1,0,.519.519A.519.519,0,0,0,203.519,112Z" transform="translate(-14.437 -9.629)" fill="#000" fill-rule="evenodd"/>
    </g>
    <rect id="Rectangle_585" data-name="Rectangle 585" width="24" height="24" transform="translate(-10658 4592)" fill="none"/>
  </g>
</svg>
