<svg xmlns="http://www.w3.org/2000/svg" width="24" height="24" viewBox="0 0 24 24">
  <g id="Group_36920" data-name="Group 36920" transform="translate(10711 -4343)">
    <g id="Iconly_Light-Outline_Notification" data-name="Iconly/Light-Outline/Notification" transform="translate(-10711.308 4343.181)">
      <g id="Notification" transform="translate(3 1)">
        <path id="Combined-Shape" d="M7.371,19.229a2.539,2.539,0,0,0,1.885.9h0a2.548,2.548,0,0,0,1.892-.9.755.755,0,0,1,1.122,1.01,4.042,4.042,0,0,1-3.014,1.4h0a4.03,4.03,0,0,1-3.006-1.4.754.754,0,0,1,1.122-1.008ZM9.307,0c4.474,0,7.479,3.484,7.479,6.738a5.149,5.149,0,0,0,.878,3.136,5.464,5.464,0,0,1,.953,3.18c-.351,4.073-4.6,4.405-9.31,4.405S.347,17.128,0,13.119A5.512,5.512,0,0,1,.95,9.874l.158-.266a5.048,5.048,0,0,0,.72-2.871C1.828,3.484,4.833,0,9.307,0Zm0,1.51c-3.517,0-5.969,2.756-5.969,5.228a6.562,6.562,0,0,1-1.094,3.913,3.979,3.979,0,0,0-.737,2.4c.168,1.9,1.421,2.9,7.8,2.9,6.344,0,7.636-1.042,7.8-2.961a3.939,3.939,0,0,0-.74-2.338,6.562,6.562,0,0,1-1.094-3.913C15.276,4.265,12.824,1.51,9.307,1.51Z" transform="translate(0)" fill="#000" fill-rule="evenodd"/>
      </g>
    </g>
    <rect id="Rectangle_582" data-name="Rectangle 582" width="24" height="24" transform="translate(-10711 4343)" fill="none"/>
  </g>
</svg>
