<svg width="15" height="12" viewBox="0 0 15 12" fill="none" xmlns="http://www.w3.org/2000/svg">
<path fill-rule="evenodd" clip-rule="evenodd" d="M7.09675 1.60549C7.09671 1.4407 7.04782 1.27962 6.95625 1.14261C6.86468 1.0056 6.73454 0.898822 6.58229 0.835763C6.43004 0.772705 6.26251 0.756202 6.10089 0.788342C5.93926 0.820481 5.79079 0.899821 5.67425 1.01633L0.840913 5.34966C0.684687 5.50593 0.596924 5.71786 0.596924 5.93883C0.596924 6.1598 0.684687 6.37172 0.840913 6.528L5.67425 10.8613C5.79079 10.9778 5.93926 11.0572 6.10089 11.0893C6.26251 11.1215 6.43004 11.1049 6.58229 11.0419C6.73454 10.9788 6.86468 10.8721 6.95625 10.735C7.04782 10.598 7.09671 10.437 7.09675 10.2722V6.77216H14.0967C14.3178 6.77216 14.5297 6.68436 14.686 6.52808C14.8423 6.3718 14.9301 6.15984 14.9301 5.93883C14.9301 5.71781 14.8423 5.50585 14.686 5.34957C14.5297 5.19329 14.3178 5.10549 14.0967 5.10549H7.09675V1.60549Z" fill="white"/>
</svg>
