<svg width="23" height="22" viewBox="0 0 23 22" fill="none" xmlns="http://www.w3.org/2000/svg">
<path d="M3.59606 4.65904C3.25 5.15209 3.25 6.61764 3.25 9.5488V10.9923C3.25 16.1604 7.13571 18.6685 9.57368 19.7335C10.235 20.0224 10.5656 20.1668 11.5 20.1668C12.4344 20.1668 12.765 20.0224 13.4263 19.7335C15.8643 18.6685 19.75 16.1604 19.75 10.9923V9.5488C19.75 6.61764 19.75 5.15209 19.404 4.65904C19.0579 4.16599 17.6799 3.69429 14.9238 2.75089L14.3988 2.57116C12.9621 2.07938 12.2438 1.8335 11.5 1.8335C10.7562 1.8335 10.0379 2.07938 8.60124 2.57116L8.07617 2.75089C5.32013 3.69429 3.94211 4.16599 3.59606 4.65904Z" fill="#000"/>
<path d="M14.3045 9.62438C14.5573 9.34113 14.5328 8.90656 14.2495 8.65367C13.9663 8.40079 13.5317 8.4254 13.2789 8.70863L10.5179 11.8009L9.72119 10.9086C9.46827 10.6254 9.03366 10.6008 8.75044 10.8537C8.46721 11.1065 8.4426 11.5411 8.69548 11.8244L10.005 13.291C10.1354 13.4372 10.322 13.5207 10.5179 13.5207C10.7137 13.5207 10.9002 13.4372 11.0306 13.291L14.3045 9.62438Z" fill="#ffffff"/>
</svg>
