<svg width="94" height="94" viewBox="0 0 94 94" fill="none" xmlns="http://www.w3.org/2000/svg">
<path opacity="0.5" d="M73.5739 37.8806H51.4906" stroke="#010101" stroke-width="5" stroke-linecap="round"/>
<path opacity="0.5" d="M38.2405 6.96399H66.9489C69 6.96399 70.0255 6.96399 70.8868 7.07737C76.8325 7.86013 81.5111 12.5388 82.2937 18.4845C82.4072 19.3455 82.4072 20.3711 82.4072 22.4223" stroke="#010101" stroke-width="5"/>
<path d="M2.9072 24.4086C2.9072 20.5108 2.9072 18.5619 3.21349 16.9385C4.56186 9.79194 10.1519 4.2019 17.2984 2.85354C18.9218 2.54724 20.8708 2.54724 24.7686 2.54724C26.4764 2.54724 27.3303 2.54724 28.151 2.624C31.6891 2.95486 35.0452 4.345 37.7809 6.61283C38.4154 7.13885 39.0192 7.7427 40.2267 8.9503L42.6572 11.3806C46.2603 14.9836 48.0619 16.7851 50.219 17.9854C51.404 18.6447 52.6614 19.1654 53.9656 19.5372C56.3396 20.2139 58.8871 20.2139 63.9826 20.2139H65.6331C77.2596 20.2139 83.0723 20.2139 86.8512 23.6124C87.1988 23.925 87.5296 24.2558 87.8419 24.6033C91.2405 28.3819 91.2405 34.195 91.2405 45.8213V55.5472C91.2405 72.2034 91.2405 80.5319 86.066 85.706C80.8918 90.8806 72.5633 90.8806 55.9072 90.8806H38.2405C21.5842 90.8806 13.2561 90.8806 8.08163 85.706C2.9072 80.5319 2.9072 72.2034 2.9072 55.5472V24.4086Z" stroke="#010101" stroke-width="5"/>
</svg>
