<svg width="19" height="20" viewBox="0 0 19 20" fill="none" xmlns="http://www.w3.org/2000/svg">
<path d="M14.7083 0.265198H4.29167C1.98958 0.265198 0.125 2.12978 0.125 4.43186V14.8485C0.125 17.1506 1.98958 19.0152 4.29167 19.0152H16.7917C17.9479 19.0152 18.875 18.0881 18.875 16.9319V6.5152C18.875 5.96266 18.6555 5.43276 18.2648 5.04206V5.04206C17.6258 4.40308 16.7917 3.69931 16.7917 2.79566V2.34853C16.7917 1.796 16.5722 1.26609 16.1815 0.875392C15.7908 0.484691 15.2609 0.265198 14.7083 0.265198ZM14.7083 2.34853V2.34853C14.7083 3.49912 13.7756 4.43186 12.625 4.43186H4.29167C3.7315 4.43186 3.19959 4.54492 2.7126 4.74605C2.48143 4.84153 2.20833 4.68198 2.20833 4.43186V4.43186C2.20833 3.28603 3.14583 2.34853 4.29167 2.34853M13.1458 13.286C12.2812 13.286 11.5833 12.5881 11.5833 11.7235C11.5833 10.8589 12.2812 10.161 13.1458 10.161C14.0104 10.161 14.7083 10.8589 14.7083 11.7235C14.7083 12.5881 14.0104 13.286 13.1458 13.286Z" fill="white"/>
</svg>
