<svg width="19" height="19" viewBox="0 0 19 19" fill="none" xmlns="http://www.w3.org/2000/svg">
<path d="M14.7083 0.125031H4.29167C1.98958 0.125031 0.125 1.98961 0.125 4.2917V14.7084C0.125 17.0104 1.98958 18.875 4.29167 18.875H16.7917C17.9479 18.875 18.875 17.9479 18.875 16.7917V6.37503C18.875 5.8225 18.6555 5.29259 18.2648 4.90189V4.90189C17.6258 4.26291 16.7917 3.55914 16.7917 2.65549V2.20836C16.7917 1.65583 16.5722 1.12593 16.1815 0.735225C15.7908 0.344524 15.2609 0.125031 14.7083 0.125031ZM14.7083 2.20836V2.20836C14.7083 3.35896 13.7756 4.2917 12.625 4.2917H4.29167C3.7315 4.2917 3.19959 4.40475 2.7126 4.60588C2.48143 4.70136 2.20833 4.54181 2.20833 4.2917V4.2917C2.20833 3.14586 3.14583 2.20836 4.29167 2.20836M13.1458 13.1459C12.2812 13.1459 11.5833 12.4479 11.5833 11.5834C11.5833 10.7188 12.2812 10.0209 13.1458 10.0209C14.0104 10.0209 14.7083 10.7188 14.7083 11.5834C14.7083 12.4479 14.0104 13.1459 13.1458 13.1459Z" fill="url(#paint0_linear_108_16)"/>
<defs>
<linearGradient id="paint0_linear_108_16" x1="-0.196195" y1="9.50004" x2="18.875" y2="9.50004" gradientUnits="userSpaceOnUse">
<stop stop-color="#00A3FF"/>
<stop offset="0.5" stop-color="#0094FF"/>
<stop offset="0.979167" stop-color="#2CCCFE"/>
</linearGradient>
</defs>
</svg>
