<svg width="15" height="16" viewBox="0 0 15 16" fill="none" xmlns="http://www.w3.org/2000/svg">
<circle cx="7.49707" cy="7.56445" r="7.25" fill="#293351"/>
<path d="M6.91752 12.0645V5.519H7.92321V12.0645H6.91752ZM7.42889 4.42809C7.23287 4.42809 7.06383 4.36133 6.92179 4.22781C6.78258 4.09428 6.71298 3.93377 6.71298 3.74627C6.71298 3.55877 6.78258 3.39826 6.92179 3.26474C7.06383 3.13121 7.23287 3.06445 7.42889 3.06445C7.62491 3.06445 7.79252 3.13121 7.93173 3.26474C8.07377 3.39826 8.1448 3.55877 8.1448 3.74627C8.1448 3.93377 8.07377 4.09428 7.93173 4.22781C7.79252 4.36133 7.62491 4.42809 7.42889 4.42809Z" fill="white"/>
</svg>
