<svg width="7" height="24" viewBox="0 0 7 24" fill="none" xmlns="http://www.w3.org/2000/svg">
<path d="M3.32064 23.0229C2.54147 23.0229 1.87469 22.7457 1.32031 22.1913C0.764972 21.636 0.487305 20.9687 0.487305 20.1895C0.487305 19.4104 0.764972 18.7431 1.32031 18.1878C1.87469 17.6334 2.54147 17.3562 3.32064 17.3562C4.0998 17.3562 4.76705 17.6334 5.32239 18.1878C5.87678 18.7431 6.15397 19.4104 6.15397 20.1895C6.15397 20.9687 5.87678 21.636 5.32239 22.1913C4.76705 22.7457 4.0998 23.0229 3.32064 23.0229ZM3.32064 14.5229C2.54147 14.5229 1.87469 14.2452 1.32031 13.6899C0.764972 13.1355 0.487305 12.4687 0.487305 11.6895C0.487305 10.9104 0.764972 10.2431 1.32031 9.68778C1.87469 9.1334 2.54147 8.8562 3.32064 8.8562C4.0998 8.8562 4.76705 9.1334 5.32239 9.68778C5.87678 10.2431 6.15397 10.9104 6.15397 11.6895C6.15397 12.4687 5.87678 13.1355 5.32239 13.6899C4.76705 14.2452 4.0998 14.5229 3.32064 14.5229ZM3.32064 6.02287C2.54147 6.02287 1.87469 5.7452 1.32031 5.18987C0.764972 4.63548 0.487305 3.9687 0.487305 3.18953C0.487305 2.41037 0.764972 1.74359 1.32031 1.1892C1.87469 0.633868 2.54147 0.356201 3.32064 0.356201C4.0998 0.356201 4.76705 0.633868 5.32239 1.1892C5.87678 1.74359 6.15397 2.41037 6.15397 3.18953C6.15397 3.9687 5.87678 4.63548 5.32239 5.18987C4.76705 5.7452 4.0998 6.02287 3.32064 6.02287Z" fill="#fff"/>
</svg>
