<svg width="26" height="26" viewBox="0 0 26 26" fill="none" xmlns="http://www.w3.org/2000/svg">
<path d="M13 14.1507C13.8629 14.1507 14.5625 13.4511 14.5625 12.5882C14.5625 11.7252 13.8629 11.0257 13 11.0257C12.1371 11.0257 11.4375 11.7252 11.4375 12.5882C11.4375 13.4511 12.1371 14.1507 13 14.1507Z" fill="url(#paint0_linear_3_705)"/>
<path d="M23.3021 10.8381L22.4792 8.21314C22.3903 7.90976 22.2413 7.62739 22.0409 7.38285C21.8406 7.13832 21.593 6.93665 21.3131 6.78985C21.0331 6.64306 20.7264 6.55416 20.4113 6.52845C20.0963 6.50275 19.7792 6.54076 19.4792 6.64023L19.125 6.75481C18.8476 6.84653 18.552 6.8698 18.2636 6.82264C17.9753 6.77548 17.7025 6.65929 17.4688 6.48398L17.3542 6.40064C17.126 6.22603 16.9421 6.00025 16.8173 5.74151C16.6924 5.48277 16.6301 5.1983 16.6354 4.91106V4.61939C16.6405 3.96525 16.3857 3.33584 15.9271 2.86939C15.7089 2.64903 15.4494 2.47394 15.1634 2.35417C14.8774 2.2344 14.5705 2.17231 14.2604 2.17148H11.6042C10.9669 2.17971 10.3586 2.43939 9.91183 2.89396C9.46506 3.34853 9.21595 3.9612 9.21876 4.59856V4.84856C9.21775 5.15093 9.14892 5.44922 9.01731 5.72144C8.8857 5.99367 8.69469 6.23289 8.45834 6.42148L8.32292 6.52564C8.06182 6.72317 7.75643 6.85393 7.43329 6.90658C7.11016 6.95923 6.77905 6.93216 6.46876 6.82773C6.18377 6.72911 5.88174 6.68934 5.58094 6.71082C5.28014 6.73231 4.98683 6.8146 4.71876 6.95273C4.43965 7.09126 4.19203 7.28574 3.99132 7.52409C3.79061 7.76243 3.6411 8.03953 3.55209 8.33814L2.69792 11.0465C2.49984 11.6571 2.55064 12.3212 2.83929 12.8946C3.11606 13.4444 3.59008 13.8682 4.16504 14.0826C4.21411 14.1008 4.2663 14.109 4.31867 14.109V14.109C4.37659 14.109 4.43429 14.1188 4.48754 14.1416C4.73561 14.2478 4.95864 14.4056 5.14158 14.6049C5.34429 14.8257 5.49207 15.0912 5.57292 15.3798L5.63542 15.5465C5.75154 15.8654 5.79038 16.2072 5.74873 16.5441C5.70708 16.8809 5.58614 17.203 5.39584 17.484C5.01065 18.0086 4.84817 18.664 4.94376 19.3077C5.03935 19.9515 5.38526 20.5315 5.90626 20.9215L8.06251 22.5569C8.47079 22.8537 8.964 23.0108 9.46876 23.0048C9.60385 23.018 9.73991 23.018 9.87501 23.0048C10.1876 22.9443 10.4846 22.8207 10.7479 22.6416C11.0111 22.4625 11.2352 22.2317 11.4063 21.9631L11.6458 21.6194C11.8139 21.3783 12.0363 21.1801 12.295 21.0408C12.5538 20.9015 12.8416 20.8249 13.1354 20.8173C13.4433 20.8097 13.7481 20.8803 14.0213 21.0224C14.2945 21.1644 14.5273 21.3734 14.6979 21.6298L14.8229 21.8069C15.0005 22.0712 15.2304 22.2964 15.4983 22.4685C15.7662 22.6407 16.0665 22.7562 16.3807 22.8079C16.6949 22.8596 17.0164 22.8465 17.3253 22.7692C17.6343 22.692 17.9241 22.5524 18.1771 22.359L20.2917 20.7756C20.7916 20.3873 21.1241 19.8225 21.221 19.1969C21.3178 18.5713 21.1717 17.9324 20.8125 17.4111L20.5417 17.0152C20.3788 16.7636 20.2722 16.4798 20.229 16.1831C20.1859 15.8865 20.2072 15.5841 20.2917 15.2965C20.3777 14.9886 20.5375 14.7063 20.7571 14.474C20.9767 14.2417 21.2495 14.0664 21.5521 13.9631L21.7604 13.8902C22.3632 13.681 22.8611 13.2457 23.1488 12.6761C23.4365 12.1066 23.4915 11.4475 23.3021 10.8381ZM13 16.234C12.2789 16.234 11.574 16.0202 10.9745 15.6195C10.3749 15.2189 9.90764 14.6495 9.63169 13.9833C9.35575 13.3172 9.28355 12.5841 9.42423 11.8769C9.5649 11.1697 9.91213 10.52 10.422 10.0102C10.9319 9.50027 11.5815 9.15304 12.2887 9.01236C12.996 8.87169 13.729 8.94389 14.3952 9.21983C15.0614 9.49578 15.6308 9.96307 16.0314 10.5626C16.432 11.1622 16.6458 11.8671 16.6458 12.5881C16.6458 13.5551 16.2617 14.4824 15.578 15.1661C14.8943 15.8499 13.9669 16.234 13 16.234Z" fill="url(#paint1_linear_3_705)"/>
<defs>
<linearGradient id="paint0_linear_3_705" x1="11.384" y1="12.5882" x2="14.5625" y2="12.5882" gradientUnits="userSpaceOnUse">
<stop stop-color="#00A3FF"/>
<stop offset="0.5" stop-color="#0094FF"/>
<stop offset="0.979167" stop-color="#2CCCFE"/>
</linearGradient>
<linearGradient id="paint1_linear_3_705" x1="2.22209" y1="12.5931" x2="23.4129" y2="12.5931" gradientUnits="userSpaceOnUse">
<stop stop-color="#00A3FF"/>
<stop offset="0.5" stop-color="#0094FF"/>
<stop offset="0.979167" stop-color="#2CCCFE"/>
</linearGradient>
</defs>
</svg>
