<svg width="28" height="28" viewBox="0 0 28 28" fill="none" xmlns="http://www.w3.org/2000/svg">
<path d="M18.642 19.2841V12.5228C18.642 11.9041 18.1358 11.3978 17.517 11.3978C16.8983 11.3978 16.392 11.9041 16.392 12.5228V19.2841H14.3783C13.872 19.2841 13.6245 19.8916 13.9845 20.2403L17.1233 23.3678C17.3483 23.5816 17.697 23.5816 17.922 23.3678L21.0608 20.2403C21.4208 19.8916 21.162 19.2841 20.667 19.2841H18.642ZM10.3733 3.91657L7.2345 7.05532C6.8745 7.40407 7.122 8.01157 7.62825 8.01157H9.642V14.7728C9.642 15.3916 10.1483 15.8978 10.767 15.8978C11.3858 15.8978 11.892 15.3916 11.892 14.7728V8.01157H13.9058C14.412 8.01157 14.6595 7.40407 14.2995 7.05532L11.1608 3.91657C11.0555 3.81377 10.9142 3.75623 10.767 3.75623C10.6199 3.75623 10.4785 3.81377 10.3733 3.91657Z" fill="white"/>
</svg>
