<svg xmlns="http://www.w3.org/2000/svg" width="32" height="32" viewBox="0 0 32 32">
  <g id="Group_60771" data-name="Group 60771" transform="translate(-16425 -14442)">
    <g id="_8d03a371c532e907d2aa6a7e98fd55e1" data-name="8d03a371c532e907d2aa6a7e98fd55e1" transform="translate(16425.779 14441.979)">
      <circle id="Ellipse_500" data-name="Ellipse 500" cx="15.221" cy="15.221" r="15.221" transform="translate(0 0.8)" fill="#f5b300"/>
      <path id="Path_24335" data-name="Path 24335" d="M19.877,14.2c.528.144,1.056.24,1.584.384s1.056.24,1.585.384c.144.048.192,0,.24-.144.192-.816.384-1.584.576-2.4.048-.144.1-.192.24-.144.48.144.912.24,1.392.336.144.048.144.1.1.192-.192.768-.384,1.584-.576,2.353a.363.363,0,0,1-.048.192c.384.1.816.192,1.2.288.048,0,.1-.1.144-.144.144-.624.288-1.2.48-1.825l.144-.576c0-.1.048-.144.144-.1.48.144.96.24,1.488.384.048,0,.048.048.1.048-.144.624-.288,1.2-.432,1.777a4,4,0,0,1-.192.72c-.048.144,0,.192.144.24l1.584.72a4.073,4.073,0,0,1,1.248,1.152A2.876,2.876,0,0,1,31.3,20.3a2.984,2.984,0,0,1-.72,1.392,2.935,2.935,0,0,1-1.056.624c-.048,0-.1.048-.192.048.192.144.384.24.576.384a3.028,3.028,0,0,1,1.152,1.633,3.764,3.764,0,0,1-.1,1.633,4.717,4.717,0,0,1-.864,1.777,2.982,2.982,0,0,1-1.969,1.056,9.941,9.941,0,0,1-2.929-.1.2.2,0,0,0-.288.144c-.192.768-.384,1.584-.576,2.353-.048.192-.048.24-.288.144-.432-.1-.912-.24-1.344-.336-.144-.048-.144-.1-.1-.192.192-.816.384-1.633.624-2.4,0-.1.048-.144-.048-.192-.384-.1-.768-.192-1.2-.288-.1.432-.24.864-.336,1.3s-.24.864-.336,1.3c-.048.1-.048.144-.192.1-.48-.144-.96-.24-1.44-.336-.144-.048-.144-.1-.1-.192.192-.816.384-1.633.624-2.4,0-.048.048-.1.048-.192-1.1-.288-2.209-.576-3.361-.864.1-.192.144-.336.24-.528.192-.432.384-.864.528-1.248.048-.144.1-.144.24-.144a8.363,8.363,0,0,0,1.056.24.534.534,0,0,0,.72-.432c.624-2.449,1.248-4.9,1.825-7.394a.832.832,0,0,0-.576-.96c-.432-.144-.864-.24-1.248-.336-.1,0-.144-.048-.1-.144.144-.528.288-1.1.432-1.633-.192.144-.192.144-.144.1Zm2.449,11.86a.168.168,0,0,1,.1.048,13.289,13.289,0,0,0,2.4.48,3.724,3.724,0,0,0,1.633-.144,1.532,1.532,0,0,0,.768-2.257,2.932,2.932,0,0,0-1.008-.864,9.689,9.689,0,0,0-2.833-.864c-.144-.048-.144,0-.192.144-.1.48-.24.912-.336,1.392C22.662,24.668,22.518,25.341,22.326,26.061Zm4.033-4.9a3.135,3.135,0,0,0,.528-.1A1.4,1.4,0,0,0,27.8,19a2.283,2.283,0,0,0-1.1-.912,14.675,14.675,0,0,0-2.065-.624c-.144-.048-.192,0-.24.144-.24,1.008-.48,1.969-.768,2.977-.048.1,0,.144.1.192.192.048.336.1.528.144a14.961,14.961,0,0,0,2.113.24Z" transform="translate(-8.785 -5.959)" fill="#fff"/>
    </g>
    <rect id="Rectangle_1323" data-name="Rectangle 1323" width="32" height="32" transform="translate(16425 14442)" fill="none"/>
  </g>
</svg>
