<svg xmlns="http://www.w3.org/2000/svg" width="24" height="24" viewBox="0 0 24 24">
  <g id="Group_36925" data-name="Group 36925" transform="translate(10344 -4832)">
    <g id="e6075edfb7d68134e8d0167b06846b50" transform="translate(-10342.864 4833.114)">
      <path id="Path_686" data-name="Path 686" d="M16.162,12.715A2.038,2.038,0,0,0,14.4,9.679a.679.679,0,1,0-1.358,0H11.679a.679.679,0,1,0,0,1.358v4.075a.679.679,0,1,0,0,1.358h1.358a.679.679,0,1,0,1.358,0h.679a2.038,2.038,0,0,0,1.087-3.756Zm-1.087-1a.679.679,0,0,1-.679.679H13.038V11.038H14.4A.679.679,0,0,1,15.075,11.717Zm0,3.4H13.038V13.754h2.038a.679.679,0,1,1,0,1.358Z" transform="translate(-3.54 -2.888)" fill="#fff"/>
      <path id="Path_687" data-name="Path 687" d="M19.889,13.237A10.12,10.12,0,0,0,17.274,2.879a.682.682,0,1,0-.951.978,8.775,8.775,0,0,1,2.357,8.694,4.53,4.53,0,0,0-1.358-.306,7.471,7.471,0,1,0-5.108,5.114,4.53,4.53,0,0,0,.306,1.358,8.83,8.83,0,1,1,1.766-16.3.694.694,0,0,0,.645-1.229,10.188,10.188,0,1,0-1.7,18.712,4.754,4.754,0,1,0,6.663-6.663ZM4.064,10.187a6.113,6.113,0,1,1,11.818,2.167,4.754,4.754,0,0,0-3.539,3.539,6.113,6.113,0,0,1-8.279-5.705Zm12.9,10.188a3.4,3.4,0,1,1,3.4-3.4A3.4,3.4,0,0,1,16.969,20.375Z" transform="translate(0 0)" fill="#fff"/>
      <path id="Path_688" data-name="Path 688" d="M23.312,25.958c-.367,0-.408-.129-1.616-1.358a.682.682,0,0,1,.964-.964l.679.679,1.779-1.779a.68.68,0,1,1,.964.958l-2.269,2.262A.679.679,0,0,1,23.312,25.958Z" transform="translate(-6.907 -7.166)" fill="#fff"/>
    </g>
    <rect id="Rectangle_587" data-name="Rectangle 587" width="24" height="24" transform="translate(-10344 4832)" fill="none"/>
  </g>
</svg>
