<svg xmlns="http://www.w3.org/2000/svg" width="24.026" height="24.026" viewBox="0 0 24.026 24.026">
  <g id="Icon_ionic-ios-close-circle-outline" data-name="Icon ionic-ios-close-circle-outline" transform="translate(-3.375 -3.375)">
    <path id="Path_657" data-name="Path 657" d="M21.342,20.035,18.3,16.992l3.044-3.044a.923.923,0,1,0-1.305-1.305l-3.044,3.044-3.044-3.044a.923.923,0,1,0-1.305,1.305l3.044,3.044-3.044,3.044a.892.892,0,0,0,0,1.305.917.917,0,0,0,1.305,0L16.993,18.3l3.044,3.044a.927.927,0,0,0,1.305,0A.917.917,0,0,0,21.342,20.035Z" transform="translate(-1.605 -1.604)" fill="#fff"/>
    <path id="Path_658" data-name="Path 658" d="M15.388,4.992A10.392,10.392,0,1,1,8.036,8.036a10.327,10.327,0,0,1,7.352-3.044m0-1.617A12.013,12.013,0,1,0,27.4,15.388,12.011,12.011,0,0,0,15.388,3.375Z" fill="#fff"/>
  </g>
</svg>
