<svg xmlns="http://www.w3.org/2000/svg" width="24" height="24" viewBox="0 0 24 24">
  <g id="privacy" transform="translate(11089 -4418)">
    <rect id="Rectangle_16196" data-name="Rectangle 16196" width="24" height="24" transform="translate(-11089 4418)" fill="#fff" opacity="0"/>
    <g id="_17c196ca2f4779e37f1e1319b96a3e2b" data-name="17c196ca2f4779e37f1e1319b96a3e2b" transform="translate(-11087.838 4419.163)">
      <path id="Path_17679" data-name="Path 17679" d="M12.515,11.16A1.016,1.016,0,1,0,11.5,12.176,1.016,1.016,0,0,0,12.515,11.16Zm7.451-9.144A1.016,1.016,0,1,0,20.981,1,1.016,1.016,0,0,0,19.965,2.016ZM17.595,4.725a1.016,1.016,0,1,0,1.016-1.016A1.016,1.016,0,0,0,17.595,4.725Zm2.371,7.112a1.016,1.016,0,1,0,1.016-1.016A1.016,1.016,0,0,0,19.965,11.837ZM3.032,2.016A1.016,1.016,0,1,0,2.016,3.032,1.016,1.016,0,0,0,3.032,2.016ZM5.4,4.725A1.016,1.016,0,1,0,4.387,5.741,1.016,1.016,0,0,0,5.4,4.725ZM3.032,11.837a1.016,1.016,0,1,0-1.016,1.016A1.016,1.016,0,0,0,3.032,11.837Zm0,9.144A1.016,1.016,0,1,0,2.016,22,1.016,1.016,0,0,0,3.032,20.981ZM5.4,18.272a1.016,1.016,0,1,0-1.016,1.016A1.016,1.016,0,0,0,5.4,18.272Zm14.563,2.709a1.016,1.016,0,1,0,1.016-1.016A1.016,1.016,0,0,0,19.965,20.981Zm-2.371-2.709a1.016,1.016,0,1,0,1.016-1.016A1.016,1.016,0,0,0,17.595,18.272Z" transform="translate(-0.661 -0.661)" fill="none" fill-rule="evenodd"/>
      <g id="Group_60491" data-name="Group 60491" transform="translate(0)">
        <path id="Path_17680" data-name="Path 17680" d="M2.667,19.981H7.112a1.016,1.016,0,0,0,1.016-1.016V17.272a.339.339,0,0,1,.677,0v1.693a1.694,1.694,0,0,1-1.693,1.693H2.667a1.355,1.355,0,1,1,0-.677Zm16.341.677H14.563a1.694,1.694,0,0,1-1.693-1.693V17.272a.339.339,0,0,1,.677,0v1.693a1.016,1.016,0,0,0,1.016,1.016h4.445a1.355,1.355,0,1,1,0,.677ZM2.032,20.32a.677.677,0,1,1-.677-.677A.678.678,0,0,1,2.032,20.32Zm17.611,0A.677.677,0,1,1,20.32,21,.678.678,0,0,1,19.643,20.32ZM5.037,17.272h.381a.339.339,0,0,0,.339-.339V14.9a.339.339,0,0,1,.677,0v2.032a1.016,1.016,0,0,1-1.016,1.016H5.037a1.355,1.355,0,1,1,0-.677Zm11.6.677h-.381a1.016,1.016,0,0,1-1.016-1.016V14.9a.339.339,0,0,1,.677,0v2.032a.339.339,0,0,0,.339.339h.381a1.355,1.355,0,1,1,0,.677ZM4.4,17.611a.677.677,0,1,1-.677-.677A.678.678,0,0,1,4.4,17.611Zm12.869,0a.677.677,0,1,1,.677.677A.678.678,0,0,1,17.272,17.611Zm-5.827-.647a9.909,9.909,0,0,0,4.811-8.5.338.338,0,0,0-.265-.331,7.016,7.016,0,0,1-4.857-3.559.339.339,0,0,0-.593,0A7.016,7.016,0,0,1,5.684,8.136a.338.338,0,0,0-.265.331,9.908,9.908,0,0,0,4.811,8.5l.433.26a.339.339,0,0,0,.348,0l.433-.26ZM10.837,5.4A7.6,7.6,0,0,1,6.1,8.733a9.231,9.231,0,0,0,4.478,7.65l.259.156.259-.156a9.232,9.232,0,0,0,4.173-5.546,9.393,9.393,0,0,0,.3-2.067V8.733A7.6,7.6,0,0,1,10.837,5.4ZM10.5,11.811a1.355,1.355,0,1,1,.677,0v1.736a.339.339,0,0,1-.677,0V11.811Zm8.509-.973a1.355,1.355,0,1,1,0,.677H16.933a.339.339,0,0,1,0-.677Zm-16.341.677a1.355,1.355,0,1,1,0-.677H4.741a.339.339,0,0,1,0,.677H2.667Zm16.976-.339a.677.677,0,1,1,.677.677A.678.678,0,0,1,19.643,11.176Zm-17.611,0a.677.677,0,1,1-.677-.677A.678.678,0,0,1,2.032,11.176Zm9.483-.677a.677.677,0,1,1-.677-.677A.678.678,0,0,1,11.515,10.5Zm5.123-6.773a1.355,1.355,0,1,1,0,.677h-.381a.339.339,0,0,0-.339.339V6.773a.339.339,0,0,1-.677,0V4.741a1.016,1.016,0,0,1,1.016-1.016ZM5.037,4.4a1.355,1.355,0,1,1,0-.677h.381A1.016,1.016,0,0,1,6.435,4.741V6.773a.339.339,0,0,1-.677,0V4.741A.338.338,0,0,0,5.419,4.4ZM19.008,1.016a1.355,1.355,0,1,1,0,.677H14.563a1.016,1.016,0,0,0-1.016,1.016V5.419a.339.339,0,0,1-.677,0V2.709a1.694,1.694,0,0,1,1.693-1.693ZM2.667,1.693a1.355,1.355,0,1,1,0-.677H7.112A1.694,1.694,0,0,1,8.805,2.709V5.419a.339.339,0,0,1-.677,0V2.709A1.016,1.016,0,0,0,7.112,1.693H2.667ZM17.272,4.064a.677.677,0,1,1,.677.677A.678.678,0,0,1,17.272,4.064ZM4.4,4.064a.677.677,0,1,1-.677-.677A.678.678,0,0,1,4.4,4.064Zm15.24-2.709a.677.677,0,1,1,.677.677A.678.678,0,0,1,19.643,1.355Zm-17.611,0A.677.677,0,1,1,1.355.677.678.678,0,0,1,2.032,1.355Z" transform="translate(0)" fill="#fff" fill-rule="evenodd"/>
      </g>
    </g>
  </g>
</svg>
