<svg xmlns="http://www.w3.org/2000/svg" width="18" height="18" viewBox="0 0 18 18">
  <path id="e802a9302228b725ba98731d001bccaf" d="M8.3,2H4.7A2.7,2.7,0,0,0,2,4.7V8.3a.9.9,0,1,0,1.8,0V4.7a.9.9,0,0,1,.9-.9H8.3A.9.9,0,1,0,8.3,2ZM2,12.8v4.5A2.7,2.7,0,0,0,4.7,20H7.4a.9.9,0,1,0,0-1.8H4.7a.9.9,0,0,1-.9-.9V12.8a.9.9,0,1,0-1.8,0ZM13.7,20h3.6A2.7,2.7,0,0,0,20,17.3V13.7a.9.9,0,1,0-1.8,0v3.6a.9.9,0,0,1-.9.9H13.7a.9.9,0,1,0,0,1.8ZM20,8.3V4.7A2.7,2.7,0,0,0,17.3,2H13.7a.9.9,0,1,0,0,1.8h3.6a.9.9,0,0,1,.9.9V8.3a.9.9,0,1,0,1.8,0ZM6.5,11.9h9a.9.9,0,1,0,0-1.8h-9a.9.9,0,1,0,0,1.8Z" transform="translate(-2 -2)" fill="#000" fill-rule="evenodd"/>
</svg>
