<svg xmlns="http://www.w3.org/2000/svg" width="24" height="24" viewBox="0 0 24 24">
  <g id="Group_36919" data-name="Group 36919" transform="translate(10702 -4171)">
    <g id="d077dd4514b8c54cc2103dcebe4ba2ea" transform="translate(-10782.649 4138.068)">
      <path id="Path_676" data-name="Path 676" d="M93.108,55.66q1.152-.733,2.306-1.463c.348-.22.7-.438,1.038-.675a13.722,13.722,0,0,0,5.2-6.868,14.249,14.249,0,0,0,.743-4.671V38.959a.931.931,0,0,0-.668-.877,8.467,8.467,0,0,1-.818-.282l.218.091a6.123,6.123,0,0,1-1.329-.775l.184.143A6.078,6.078,0,0,1,98.9,36.18l.143.184a6.148,6.148,0,0,1-.777-1.331c.03.073.061.145.091.218-.068-.164-.132-.332-.186-.5a.933.933,0,0,0-.877-.668H89.143c-.375,0-.752-.011-1.127,0H88a.931.931,0,0,0-.877.668c-.055.17-.116.336-.186.5.03-.073.061-.145.091-.218a6.2,6.2,0,0,1-.777,1.331l.143-.184a6.078,6.078,0,0,1-1.081,1.079l.184-.143a6.177,6.177,0,0,1-1.329.775l.218-.091c-.268.111-.541.2-.818.282a.931.931,0,0,0-.668.877V41.7c0,.482,0,.963.034,1.445a14.1,14.1,0,0,0,.513,2.9,13.956,13.956,0,0,0,2.745,5.085,14.681,14.681,0,0,0,3.422,2.9l2.515,1.595.064.041a.915.915,0,0,0,1.243-.327.928.928,0,0,0-.327-1.243l-1.225-.777-1.565-.993q-.549-.348-1.068-.743l.184.143a12.93,12.93,0,0,1-2.3-2.3l.143.184a13.066,13.066,0,0,1-1.674-2.865c.03.073.061.145.091.218a12.9,12.9,0,0,1-.9-3.288c.011.08.023.161.032.241a16.738,16.738,0,0,1-.114-2.211V38.968l-.668.877a7.373,7.373,0,0,0,2.208-1.029,6.87,6.87,0,0,0,2.62-3.572L88,35.912h8.154c.375,0,.752.009,1.127,0H97.3l-.877-.668a6.911,6.911,0,0,0,3.565,4.126,9.18,9.18,0,0,0,1.263.475l-.668-.877v3.222a13.3,13.3,0,0,1-.114,1.727c.011-.08.023-.161.032-.241a13.112,13.112,0,0,1-.9,3.288c.03-.073.061-.145.091-.218a13.065,13.065,0,0,1-1.674,2.865l.143-.184a12.931,12.931,0,0,1-2.3,2.3l.184-.143c-.509.393-1.05.732-1.59,1.077l-1.8,1.143-.466.3a.953.953,0,0,0-.418.543.939.939,0,0,0,.091.7A.922.922,0,0,0,93.108,55.66Z" transform="translate(0 0)" fill="#000"/>
      <path id="Path_677" data-name="Path 677" d="M297.019,329.649l2.333,2.333.332.332a.923.923,0,0,0,1.286,0l1.8-1.8,2.851-2.851.657-.657a.909.909,0,1,0-1.286-1.286l-1.8,1.8-2.851,2.851-.657.657h1.286l-2.333-2.333-.332-.332a.909.909,0,0,0-1.286,1.286Z" transform="translate(-209 -284.761)" fill="#000"/>
    </g>
    <rect id="Rectangle_581" data-name="Rectangle 581" width="24" height="24" transform="translate(-10702 4171)" fill="none"/>
  </g>
</svg>
