<svg xmlns="http://www.w3.org/2000/svg" width="24" height="24" viewBox="0 0 24 24">
  <g id="Group_37052" data-name="Group 37052" transform="translate(9240 -11940)">
    <g id="Iconly_Light-Outline_Setting" data-name="Iconly/Light-Outline/Setting" transform="translate(-9240.159 11939.084)">
      <g id="Setting" transform="translate(2 2)">
        <path id="Combined-Shape" d="M10.817,1a2.8,2.8,0,0,1,2.806,2.886,1.125,1.125,0,0,0,.159.537,1.214,1.214,0,0,0,1.668.437A2.814,2.814,0,0,1,19.285,5.89l.656,1.137a.9.9,0,0,1,.044.091,2.816,2.816,0,0,1-1.064,3.735,1.2,1.2,0,0,0-.447.444,1.237,1.237,0,0,0-.126.93,1.2,1.2,0,0,0,.569.741A2.8,2.8,0,0,1,19.939,16.8l-.7,1.165a2.807,2.807,0,0,1-3.821,1.01,1.254,1.254,0,0,0-.588-.163h-.006a1.219,1.219,0,0,0-.845.356,1.2,1.2,0,0,0-.355.865,2.813,2.813,0,0,1-2.807,2.8H9.5A2.809,2.809,0,0,1,6.69,20.026a1.134,1.134,0,0,0-.159-.561,1.206,1.206,0,0,0-1.66-.454,2.806,2.806,0,0,1-3.838-1.08L.374,16.8A2.8,2.8,0,0,1,1.4,12.978a1.225,1.225,0,0,0,0-2.123A2.811,2.811,0,0,1,.373,7.027l.714-1.173A2.8,2.8,0,0,1,4.9,4.837,1.153,1.153,0,0,0,5.485,5,1.229,1.229,0,0,0,6.7,3.795,2.793,2.793,0,0,1,9.5,1Zm0,1.58H9.5A1.212,1.212,0,0,0,8.281,3.8a2.821,2.821,0,0,1-2.806,2.78A2.718,2.718,0,0,1,4.107,6.2a1.227,1.227,0,0,0-1.66.459L1.733,7.833a1.223,1.223,0,0,0,.455,1.654,2.806,2.806,0,0,1,0,4.859,1.217,1.217,0,0,0-.444,1.659l.665,1.146a1.229,1.229,0,0,0,1.679.489A2.794,2.794,0,0,1,6.2,17.362a2.811,2.811,0,0,1,1.7,1.308,2.7,2.7,0,0,1,.374,1.349A1.228,1.228,0,0,0,9.5,21.251h1.32a1.227,1.227,0,0,0,1.226-1.219,2.8,2.8,0,0,1,2.81-2.8A2.869,2.869,0,0,1,16.2,17.6a1.233,1.233,0,0,0,1.675-.444l.7-1.166a1.218,1.218,0,0,0-.449-1.656,2.778,2.778,0,0,1-1.309-1.7,2.814,2.814,0,0,1,.286-2.127A2.781,2.781,0,0,1,18.13,9.485a1.228,1.228,0,0,0,.439-1.663.588.588,0,0,1-.037-.073l-.617-1.07a1.227,1.227,0,0,0-1.671-.452,2.8,2.8,0,0,1-3.822-1,2.691,2.691,0,0,1-.378-1.355,1.257,1.257,0,0,0-.347-.921A1.23,1.23,0,0,0,10.817,2.581Zm-.655,5.767a3.567,3.567,0,1,1-3.567,3.568A3.572,3.572,0,0,1,10.162,8.348Zm0,1.58a1.987,1.987,0,1,0,1.987,1.988A1.99,1.99,0,0,0,10.162,9.929Z" transform="translate(0 -1)" fill-rule="evenodd"/>
      </g>
    </g>
    <rect id="Rectangle_660" data-name="Rectangle 660" width="24" height="24" transform="translate(-9240 11940)" fill="none"/>
  </g>
</svg>
