<svg xmlns="http://www.w3.org/2000/svg" width="24" height="24" viewBox="0 0 24 24">
  <g id="Group_36918" data-name="Group 36918" transform="translate(10615 -4120)">
    <path id="_48964fa67582b37953e1b56197966cd8" data-name="48964fa67582b37953e1b56197966cd8" d="M7,16a1,1,0,1,0,1,1A1,1,0,0,0,7,16Zm12.06-4,1.23-1.23a3,3,0,0,0,0-4.24L17.46,3.71a3,3,0,0,0-4.24,0L12,4.94A3,3,0,0,0,9,2H5A3,3,0,0,0,2,5V19a3,3,0,0,0,3,3H19a3,3,0,0,0,3-3V15a3,3,0,0,0-2.941-3ZM10,19a1,1,0,0,1-1,1H5a1,1,0,0,1-1-1V5A1,1,0,0,1,5,4H9a1,1,0,0,1,1,1ZM12,7.76l2.64-2.64a1,1,0,0,1,1.41,0L18.88,8a1,1,0,0,1,0,1.41L16,12.29h0l-4,3.95ZM20,19a1,1,0,0,1-1,1H11.82a3.12,3.12,0,0,0,.17-.92L17.07,14H19a1,1,0,0,1,1,1Z" transform="translate(-10615 4120)" fill="#fff"/>
    <rect id="Rectangle_580" data-name="Rectangle 580" width="24" height="24" transform="translate(-10615 4120)" fill="none"/>
  </g>
</svg>
