<svg xmlns="http://www.w3.org/2000/svg" width="24" height="24" viewBox="0 0 24 24">
  <g id="Group_36917" data-name="Group 36917" transform="translate(10084 -4129)">
    <g id="_90d72be193cdd24a145aa41017717338" data-name="90d72be193cdd24a145aa41017717338" transform="translate(-10083.182 4129.424)">
      <path id="Path_673" data-name="Path 673" d="M20.849,13.979a.792.792,0,0,1-.792-.792V10.9a1.712,1.712,0,0,0-1.572-1.819H4.772a.792.792,0,1,1,0-1.585H18.485a3.29,3.29,0,0,1,3.17,3.4V13.18a.792.792,0,0,1-.805.8Z" transform="translate(-1.374 -2.263)" fill="#fff"/>
      <path id="Path_674" data-name="Path 674" d="M17.111,23H3.4a3.29,3.29,0,0,1-3.17-3.4V5.3a.792.792,0,0,1,1.585,0V19.6a1.705,1.705,0,0,0,1.572,1.813H17.111A1.705,1.705,0,0,0,18.683,19.6v-1.61a.792.792,0,1,1,1.585,0V19.6A3.29,3.29,0,0,1,17.111,23Z" transform="translate(0 -1.168)" fill="#fff"/>
      <path id="Path_675" data-name="Path 675" d="M16.8,6.822A.792.792,0,0,1,16,6.042V4.286a1.426,1.426,0,0,0-1.471-1.369H3.122A1.224,1.224,0,0,0,1.854,4.09,1.224,1.224,0,0,0,3.122,5.263H10.1a.792.792,0,0,1,0,1.585H3.1A2.808,2.808,0,0,1,.25,4.077,2.808,2.808,0,0,1,3.1,1.32H14.514a3.011,3.011,0,0,1,3.075,2.967V6.042a.792.792,0,0,1-.792.78ZM20,17.6H15.6a3.239,3.239,0,0,1-3.3-3.17V13.282a3.239,3.239,0,0,1,3.3-3.17h4.438a2.111,2.111,0,0,1,2.1,2.117v3.29h0A2.117,2.117,0,0,1,20,17.6ZM15.6,11.7a1.655,1.655,0,0,0-1.718,1.579v1.179A1.655,1.655,0,0,0,15.6,16.04H20a.526.526,0,0,0,.526-.52V12.23a.494.494,0,0,0-.146-.336.513.513,0,0,0-.368-.158Zm5.705,3.8Z" transform="translate(-0.008 0)" fill="#fff"/>
      <circle id="Ellipse_37" data-name="Ellipse 37" cx="0.792" cy="0.792" r="0.792" transform="translate(15.241 13.079)" fill="#fff"/>
    </g>
    <rect id="Rectangle_579" data-name="Rectangle 579" width="24" height="24" transform="translate(-10084 4129)" fill="none"/>
  </g>
</svg>
