<svg xmlns="http://www.w3.org/2000/svg" width="12.443" height="14.932" viewBox="0 0 12.443 14.932">
  <path id="a2d905656fb95bf9c8a03f0b64e5fcee" d="M4.245,4.595v7.982a3.111,3.111,0,0,0,2.906,3.1l.2.007h5.493a1.867,1.867,0,0,1-1.76,1.243H6.733A3.733,3.733,0,0,1,3,13.2V6.355A1.867,1.867,0,0,1,4.245,4.595ZM13.577,2a1.866,1.866,0,0,1,1.866,1.866v8.71a1.866,1.866,0,0,1-1.866,1.866H7.355a1.866,1.866,0,0,1-1.866-1.866V3.866A1.866,1.866,0,0,1,7.355,2Z" transform="translate(-3 -2)" fill="#fff"/>
</svg>
