<svg xmlns="http://www.w3.org/2000/svg" width="24" height="24" viewBox="0 0 24 24">
  <g id="Group_37051" data-name="Group 37051" transform="translate(9353 -11945)">
    <g id="Iconly_Light-Outline_Category" data-name="Iconly/Light-Outline/Category" transform="translate(-9353.824 11944.176)">
      <g id="Category" transform="translate(2 2)">
        <path id="Combined-Shape" d="M4.718,12.212c4.517,0,4.718,1.532,4.718,4.718,0,1.6,0,2.732-.671,3.564-.772.958-2.176,1.155-4.048,1.155s-3.276-.2-4.048-1.155C0,19.662,0,18.528,0,16.958H0V16.93C0,13.744.2,12.212,4.718,12.212Zm12.212,0c4.517,0,4.718,1.532,4.718,4.718,0,1.6,0,2.732-.671,3.564-.772.958-2.176,1.155-4.048,1.155s-3.276-.2-4.048-1.155c-.671-.832-.671-1.966-.671-3.536V16.93h0C12.212,13.744,12.413,12.212,16.93,12.212ZM4.947,13.878H4.718c-2.9,0-3.045.208-3.053,2.639v.947a3.765,3.765,0,0,0,.3,1.987c.294.364,1.168.533,2.752.533s2.458-.17,2.752-.534a5.01,5.01,0,0,0,.3-2.492C7.771,14.181,7.771,13.891,4.947,13.878Zm12.212,0H16.93c-2.9,0-3.045.208-3.053,2.639v.947a3.765,3.765,0,0,0,.3,1.987c.294.364,1.168.533,2.752.533s2.458-.17,2.752-.534a5.01,5.01,0,0,0,.3-2.492C19.983,14.181,19.983,13.891,17.159,13.878ZM4.718,0C9.236,0,9.436,1.532,9.436,4.718c0,1.6,0,2.732-.671,3.564C7.994,9.24,6.59,9.436,4.718,9.436S1.442,9.24.671,8.282C0,7.45,0,6.316,0,4.746H0V4.718C0,1.532.2,0,4.718,0ZM16.93,0c4.517,0,4.718,1.532,4.718,4.718,0,1.6,0,2.732-.671,3.564-.772.958-2.176,1.155-4.048,1.155s-3.276-.2-4.048-1.155c-.671-.832-.671-1.966-.671-3.536h0V4.718C12.212,1.532,12.413,0,16.93,0ZM4.947,1.666H4.718c-2.9,0-3.045.208-3.053,2.639v.947a3.765,3.765,0,0,0,.3,1.987c.294.364,1.168.533,2.752.533S7.176,7.6,7.47,7.237a5.01,5.01,0,0,0,.3-2.492C7.771,1.969,7.771,1.679,4.947,1.666Zm12.212,0H16.93c-2.9,0-3.045.208-3.053,2.639v.947a3.765,3.765,0,0,0,.3,1.987c.294.364,1.168.533,2.752.533s2.458-.17,2.752-.534a5.01,5.01,0,0,0,.3-2.492C19.983,1.969,19.983,1.679,17.159,1.666Z" fill-rule="evenodd"/>
      </g>
    </g>
    <rect id="Rectangle_659" data-name="Rectangle 659" width="24" height="24" transform="translate(-9353 11945)" fill="none"/>
  </g>
</svg>
