<svg xmlns="http://www.w3.org/2000/svg" width="32" height="32" viewBox="0 0 32 32">
  <g id="b20b0edee896b04e170e8427158174f8" transform="translate(-7.5 -7.5)">
    <circle id="Ellipse_34" data-name="Ellipse 34" cx="16" cy="16" r="16" transform="translate(7.5 7.5)" fill="#f2f4f7"/>
    <circle id="Ellipse_35" data-name="Ellipse 35" cx="12" cy="12" r="12" transform="translate(11.5 11.5)" fill="#f2f4f7"/>
    <path id="Path_660" data-name="Path 660" d="M174.532,96.138l-.993.563-5.047,1.9L162.6,96.138l5.893-10.1Z" transform="translate(-145.193 -73.523)" fill="#919294"/>
    <path id="Path_661" data-name="Path 661" d="M174.532,203.8l-6.04,3.426L162.6,203.8l5.893-2.751Z" transform="translate(-145.193 -181.187)" fill="#343535"/>
    <path id="Path_662" data-name="Path 662" d="M174.532,281.84l-6.04,9.206L162.6,281.84l5.893,3.426Z" transform="translate(-145.193 -256.816)" fill="#919294"/>
    <path id="Path_663" data-name="Path 663" d="M260.89,98.547l-6.04,9.206v-5.78Zm0-2.409-.993.563-5.047-2.886V86.04Z" transform="translate(-231.55 -73.523)" fill="#131313"/>
    <path id="Path_664" data-name="Path 664" d="M260.89,203.8l-6.04,3.426V201.05Z" transform="translate(-231.55 -181.187)" fill="#131313"/>
  </g>
</svg>
