<svg xmlns="http://www.w3.org/2000/svg" width="24" height="24" viewBox="0 0 24 24">
  <g id="Group_36927" data-name="Group 36927" transform="translate(9771 -4029)">
    <g id="_47d4d9c6c00561acbaad4d50b97dacd5" data-name="47d4d9c6c00561acbaad4d50b97dacd5" transform="translate(-9769.774 4030.247)">
      <path id="Path_691" data-name="Path 691" d="M10.433,20.872a10.322,10.322,0,0,1-7.392-3.044,10.445,10.445,0,0,1,0-14.785A10.322,10.322,0,0,1,10.433,0a10.322,10.322,0,0,1,7.392,3.044,10.445,10.445,0,0,1,0,14.785A10.322,10.322,0,0,1,10.433,20.872Zm0-19.133A8.608,8.608,0,0,0,4.258,4.261a8.766,8.766,0,0,0,0,12.349,8.608,8.608,0,0,0,6.175,2.522A8.654,8.654,0,0,0,16.608,4.348,8.348,8.348,0,0,0,10.433,1.739Z" transform="translate(0.025)" fill="#fff"/>
      <path id="Path_692" data-name="Path 692" d="M11.87,16.436a.822.822,0,0,1-.87-.87V6.87a.87.87,0,1,1,1.739,0v8.7A.822.822,0,0,1,11.87,16.436Z" transform="translate(-1.412 -0.782)" fill="#fff"/>
      <path id="Path_693" data-name="Path 693" d="M15.566,12.739H6.87A.87.87,0,1,1,6.87,11h8.7a.87.87,0,0,1,0,1.739Z" transform="translate(-0.76 -1.434)" fill="#fff"/>
    </g>
    <rect id="Rectangle_589" data-name="Rectangle 589" width="24" height="24" transform="translate(-9771 4029)" fill="none"/>
  </g>
</svg>
