<svg xmlns="http://www.w3.org/2000/svg" width="24" height="24" viewBox="0 0 24 24">
  <g id="Group_36926" data-name="Group 36926" transform="translate(10335 -4851)">
    <g id="_280e8ccccf938333cabb6ec25219a688" data-name="280e8ccccf938333cabb6ec25219a688" transform="translate(-10339.013 4847.058)">
      <path id="Path_689" data-name="Path 689" d="M16.246,23.3h.115a1.143,1.143,0,0,1,1.094,1.152.576.576,0,0,0,1.152,0,2.349,2.349,0,0,0-1.728-2.246v-.633a.576.576,0,0,0-1.152,0v.633a2.312,2.312,0,0,0,.576,4.549,1.152,1.152,0,1,1-1.152,1.152.576.576,0,1,0-1.152,0,2.349,2.349,0,0,0,1.728,2.246v.691a.576.576,0,1,0,1.152,0v-.691a2.312,2.312,0,0,0-.576-4.549,1.155,1.155,0,0,1-1.152-1.152A1.143,1.143,0,0,1,16.246,23.3Z" transform="translate(-3.775 -6.786)" fill="#000"/>
      <path id="Path_690" data-name="Path 690" d="M26.119,19.109a2.413,2.413,0,0,0,.23-.864V17.093a1.608,1.608,0,0,0-.461-1.152,1.608,1.608,0,0,0,.461-1.152V13.638a1.608,1.608,0,0,0-.461-1.152,1.608,1.608,0,0,0,.461-1.152V10.183a1.608,1.608,0,0,0-.461-1.152,1.608,1.608,0,0,0,.461-1.152V6.728A1.7,1.7,0,0,0,24.622,5h-6.91a1.7,1.7,0,0,0-1.728,1.728V7.879a1.608,1.608,0,0,0,.461,1.152,1.608,1.608,0,0,0-.461,1.152v1.152a1.608,1.608,0,0,0,.461,1.152.928.928,0,0,0-.23.4,7.134,7.134,0,0,0-3.628-.979,7.486,7.486,0,0,0,0,14.973,6.981,6.981,0,0,0,3.628-.979,1.734,1.734,0,0,0,1.555.979h6.91a1.7,1.7,0,0,0,1.728-1.728V24a2.413,2.413,0,0,0-.23-.864,1.79,1.79,0,0,0,.749-1.44V20.548a1.7,1.7,0,0,0-.806-1.44ZM25.774,21.7a.544.544,0,0,1-.576.576H19.439a9.643,9.643,0,0,0,.576-2.3H25.2a.544.544,0,0,1,.576.576ZM25.2,17.093v1.152a.544.544,0,0,1-.576.576H20.015a6.172,6.172,0,0,0-.576-2.3h5.183A.619.619,0,0,1,25.2,17.093Zm-8.062-6.91a.577.577,0,0,1,.576-.576h6.91a.619.619,0,0,1,.576.576v1.152a.544.544,0,0,1-.576.576h-6.91a.544.544,0,0,1-.576-.576Zm0-3.455a.544.544,0,0,1,.576-.576h6.91a.544.544,0,0,1,.576.576V7.879a.577.577,0,0,1-.576.576h-6.91a.619.619,0,0,1-.576-.576Zm.576,6.335h6.91a.544.544,0,0,1,.576.576V14.79a.577.577,0,0,1-.576.576H18.863a8.494,8.494,0,0,0-1.67-1.843A.47.47,0,0,1,17.711,13.062ZM6.194,19.4a6.335,6.335,0,1,1,6.335,6.335A6.316,6.316,0,0,1,6.194,19.4Zm19,5.759a.544.544,0,0,1-.576.576h-6.91a.561.561,0,0,1-.576-.461,8.494,8.494,0,0,0,1.67-1.843h5.816A.619.619,0,0,1,25.2,24Z" transform="translate(0)" fill="#000"/>
    </g>
    <rect id="Rectangle_588" data-name="Rectangle 588" width="24" height="24" transform="translate(-10335 4851)" fill="none"/>
  </g>
</svg>
