<svg xmlns="http://www.w3.org/2000/svg" width="24" height="24" viewBox="0 0 24 24">
  <g id="Group_36921" data-name="Group 36921" transform="translate(10628 -4450)">
    <path id="e802a9302228b725ba98731d001bccaf" d="M9.349,2H5.15A3.151,3.151,0,0,0,2,5.15v4.2a1.05,1.05,0,1,0,2.1,0V5.15A1.05,1.05,0,0,1,5.15,4.1h4.2a1.05,1.05,0,1,0,0-2.1ZM2,14.6v5.249A3.151,3.151,0,0,0,5.15,23H8.3a1.05,1.05,0,1,0,0-2.1H5.15a1.05,1.05,0,0,1-1.05-1.05V14.6a1.05,1.05,0,1,0-2.1,0ZM15.648,23h4.2A3.151,3.151,0,0,0,23,19.848v-4.2a1.05,1.05,0,1,0-2.1,0v4.2a1.05,1.05,0,0,1-1.05,1.05h-4.2a1.05,1.05,0,1,0,0,2.1ZM23,9.349V5.15A3.151,3.151,0,0,0,19.848,2h-4.2a1.05,1.05,0,1,0,0,2.1h4.2A1.05,1.05,0,0,1,20.9,5.15v4.2a1.05,1.05,0,1,0,2.1,0Zm-15.748,4.2h10.5a1.05,1.05,0,1,0,0-2.1H7.249a1.05,1.05,0,1,0,0,2.1Z" transform="translate(-10628.498 4449.501)" fill="#fff" fill-rule="evenodd"/>
    <rect id="Rectangle_583" data-name="Rectangle 583" width="24" height="24" transform="translate(-10628 4450)" fill="none"/>
  </g>
</svg>
