<svg xmlns="http://www.w3.org/2000/svg" width="24.002" height="24" viewBox="0 0 24.002 24">
  <g id="Group_37239" data-name="Group 37239" transform="translate(-17092 -10471)">
    <g id="Group_37032" data-name="Group 37032" transform="translate(22920.523 -129.478)">
      <path id="_1c141b84920e1d8e12e69a3902e945cf" data-name="1c141b84920e1d8e12e69a3902e945cf" d="M8.081,21.231H4.035a1.012,1.012,0,0,1-1.012-1.012V16.173a1.012,1.012,0,0,0-2.023,0v4.046a3.035,3.035,0,0,0,3.035,3.035H8.081a1.012,1.012,0,0,0,0-2.023Zm14.162-6.069a1.012,1.012,0,0,0-1.012,1.012v4.046a1.012,1.012,0,0,1-1.012,1.012H16.173a1.012,1.012,0,0,0,0,2.023h4.046a3.035,3.035,0,0,0,3.035-3.035V16.173A1.012,1.012,0,0,0,22.243,15.162ZM20.219,1H16.173a1.012,1.012,0,0,0,0,2.023h4.046a1.012,1.012,0,0,1,1.012,1.012V8.081a1.012,1.012,0,0,0,2.023,0V4.035A3.035,3.035,0,0,0,20.219,1ZM2.012,9.092A1.012,1.012,0,0,0,3.023,8.081V4.035A1.012,1.012,0,0,1,4.035,3.023H8.081A1.012,1.012,0,0,0,8.081,1H4.035A3.035,3.035,0,0,0,1,4.035V8.081A1.012,1.012,0,0,0,2.012,9.092ZM10.1,5.046H6.058A1.012,1.012,0,0,0,5.046,6.058V10.1a1.012,1.012,0,0,0,1.012,1.012H10.1A1.012,1.012,0,0,0,11.116,10.1V6.058A1.012,1.012,0,0,0,10.1,5.046ZM9.092,9.092H7.069V7.069H9.092Zm5.058,2.023H18.2A1.012,1.012,0,0,0,19.208,10.1V6.058A1.012,1.012,0,0,0,18.2,5.046H14.15a1.012,1.012,0,0,0-1.012,1.012V10.1A1.012,1.012,0,0,0,14.15,11.116Zm1.012-4.046h2.023V9.092H15.162ZM10.1,13.139H6.058A1.012,1.012,0,0,0,5.046,14.15V18.2a1.012,1.012,0,0,0,1.012,1.012H10.1A1.012,1.012,0,0,0,11.116,18.2V14.15A1.012,1.012,0,0,0,10.1,13.139ZM9.092,17.185H7.069V15.162H9.092Zm5.058-1.012a1.012,1.012,0,0,0,1.012-1.012,1.012,1.012,0,0,0,0-2.023H14.15a1.012,1.012,0,0,0-1.012,1.012v1.012A1.012,1.012,0,0,0,14.15,16.173ZM18.2,13.139a1.012,1.012,0,0,0-1.012,1.012v3.035a1.012,1.012,0,0,0,0,2.023H18.2A1.012,1.012,0,0,0,19.208,18.2V14.15A1.012,1.012,0,0,0,18.2,13.139ZM14.15,17.185A1.012,1.012,0,1,0,15.162,18.2,1.012,1.012,0,0,0,14.15,17.185Z" transform="translate(-5828.65 10600.351)" fill="#fff"/>
      <rect id="Rectangle_649" data-name="Rectangle 649" width="24" height="24" transform="translate(-5828.521 10600.478)" fill="none"/>
    </g>
    <rect id="Rectangle_706" data-name="Rectangle 706" width="24" height="24" transform="translate(17092 10471)" fill="none"/>
  </g>
</svg>
