<svg xmlns="http://www.w3.org/2000/svg" width="24.002" height="24" viewBox="0 0 24.002 24">
  <g id="Group_37238" data-name="Group 37238" transform="translate(-17092 -10471)">
    <g id="Group_37032" data-name="Group 37032" transform="translate(22920.523 -129.478)">
      <path id="_1c141b84920e1d8e12e69a3902e945cf" data-name="1c141b84920e1d8e12e69a3902e945cf" d="M8.127,21.363H4.054a1.018,1.018,0,0,1-1.018-1.018V16.272a1.018,1.018,0,1,0-2.036,0v4.073A3.054,3.054,0,0,0,4.054,23.4H8.127a1.018,1.018,0,0,0,0-2.036Zm14.254-6.109a1.018,1.018,0,0,0-1.018,1.018v4.073a1.018,1.018,0,0,1-1.018,1.018H16.272a1.018,1.018,0,1,0,0,2.036h4.073A3.054,3.054,0,0,0,23.4,20.345V16.272A1.018,1.018,0,0,0,22.381,15.254ZM20.345,1H16.272a1.018,1.018,0,1,0,0,2.036h4.073a1.018,1.018,0,0,1,1.018,1.018V8.127a1.018,1.018,0,0,0,2.036,0V4.054A3.054,3.054,0,0,0,20.345,1ZM2.018,9.145A1.018,1.018,0,0,0,3.036,8.127V4.054A1.018,1.018,0,0,1,4.054,3.036H8.127A1.018,1.018,0,0,0,8.127,1H4.054A3.054,3.054,0,0,0,1,4.054V8.127A1.018,1.018,0,0,0,2.018,9.145Zm8.145-4.073H6.091A1.018,1.018,0,0,0,5.073,6.091v4.073a1.018,1.018,0,0,0,1.018,1.018h4.073a1.018,1.018,0,0,0,1.018-1.018V6.091A1.018,1.018,0,0,0,10.163,5.073ZM9.145,9.145H7.109V7.109H9.145Zm5.091,2.036h4.073a1.018,1.018,0,0,0,1.018-1.018V6.091a1.018,1.018,0,0,0-1.018-1.018H14.236a1.018,1.018,0,0,0-1.018,1.018v4.073A1.018,1.018,0,0,0,14.236,11.182Zm1.018-4.073H17.29V9.145H15.254Zm-5.091,6.109H6.091a1.018,1.018,0,0,0-1.018,1.018v4.073a1.018,1.018,0,0,0,1.018,1.018h4.073a1.018,1.018,0,0,0,1.018-1.018V14.236A1.018,1.018,0,0,0,10.163,13.218ZM9.145,17.29H7.109V15.254H9.145Zm5.091-1.018a1.018,1.018,0,0,0,1.018-1.018,1.018,1.018,0,1,0,0-2.036H14.236a1.018,1.018,0,0,0-1.018,1.018v1.018A1.018,1.018,0,0,0,14.236,16.272Zm4.073-3.054a1.018,1.018,0,0,0-1.018,1.018V17.29a1.018,1.018,0,0,0,0,2.036h1.018a1.018,1.018,0,0,0,1.018-1.018V14.236A1.018,1.018,0,0,0,18.309,13.218ZM14.236,17.29a1.018,1.018,0,1,0,1.018,1.018A1.018,1.018,0,0,0,14.236,17.29Z" transform="translate(-5828.722 10600.278)"/>
      <rect id="Rectangle_649" data-name="Rectangle 649" width="24" height="24" transform="translate(-5828.521 10600.478)" fill="none"/>
    </g>
    <rect id="Rectangle_706" data-name="Rectangle 706" width="24" height="24" transform="translate(17092 10471)" fill="none"/>
  </g>
</svg>
