<svg xmlns="http://www.w3.org/2000/svg" width="33" height="33" viewBox="0 0 33 33">
  <g id="Group_37033" data-name="Group 37033" transform="translate(-309 -48)">
    <g id="Group_37030" data-name="Group 37030">
      <rect id="Rectangle_648" data-name="Rectangle 648" width="33" height="33" rx="16.5" transform="translate(309 48)" fill="#fff" opacity="0.15"/>
    </g>
    <g id="Group_37032" data-name="Group 37032" transform="translate(6146 -10544)">
      <path id="_1c141b84920e1d8e12e69a3902e945cf" data-name="1c141b84920e1d8e12e69a3902e945cf" d="M6.09,15.542H3.181a.727.727,0,0,1-.727-.727V11.906a.727.727,0,0,0-1.454,0v2.908A2.181,2.181,0,0,0,3.181,17H6.09a.727.727,0,1,0,0-1.454Zm10.179-4.363a.727.727,0,0,0-.727.727v2.908a.727.727,0,0,1-.727.727H11.906a.727.727,0,0,0,0,1.454h2.908A2.181,2.181,0,0,0,17,14.815V11.906A.727.727,0,0,0,16.269,11.179ZM14.815,1H11.906a.727.727,0,0,0,0,1.454h2.908a.727.727,0,0,1,.727.727V6.09A.727.727,0,1,0,17,6.09V3.181A2.181,2.181,0,0,0,14.815,1ZM1.727,6.817a.727.727,0,0,0,.727-.727V3.181a.727.727,0,0,1,.727-.727H6.09A.727.727,0,0,0,6.09,1H3.181A2.181,2.181,0,0,0,1,3.181V6.09A.727.727,0,0,0,1.727,6.817ZM7.544,3.908H4.635a.727.727,0,0,0-.727.727V7.544a.727.727,0,0,0,.727.727H7.544a.727.727,0,0,0,.727-.727V4.635A.727.727,0,0,0,7.544,3.908ZM6.817,6.817H5.363V5.363H6.817Zm3.635,1.454h2.908a.727.727,0,0,0,.727-.727V4.635a.727.727,0,0,0-.727-.727H10.452a.727.727,0,0,0-.727.727V7.544A.727.727,0,0,0,10.452,8.271Zm.727-2.908h1.454V6.817H11.179ZM7.544,9.725H4.635a.727.727,0,0,0-.727.727v2.908a.727.727,0,0,0,.727.727H7.544a.727.727,0,0,0,.727-.727V10.452A.727.727,0,0,0,7.544,9.725Zm-.727,2.908H5.363V11.179H6.817Zm3.635-.727a.727.727,0,0,0,.727-.727.727.727,0,0,0,0-1.454h-.727a.727.727,0,0,0-.727.727v.727A.727.727,0,0,0,10.452,11.906Zm2.908-2.181a.727.727,0,0,0-.727.727v2.181a.727.727,0,0,0,0,1.454h.727a.727.727,0,0,0,.727-.727V10.452A.727.727,0,0,0,13.361,9.725Zm-2.908,2.908a.727.727,0,1,0,.727.727A.727.727,0,0,0,10.452,12.634Z" transform="translate(-5828.998 10600.002)" fill="#fff"/>
      <rect id="Rectangle_649" data-name="Rectangle 649" width="18" height="18" transform="translate(-5829 10600)" fill="none"/>
    </g>
  </g>
</svg>
