<svg xmlns="http://www.w3.org/2000/svg" width="24" height="24" viewBox="0 0 24 24">
  <g id="Group_37053" data-name="Group 37053" transform="translate(-0.27 -0.27)">
    <path id="_42a6247f45b5576a4435914ec689925c" data-name="42a6247f45b5576a4435914ec689925c" d="M11.749,2.2V23.7a3.1,3.1,0,0,1-3.1-3.1V10.524h-4.1a.55.55,0,0,1-.389-.939L11.609,2.14A.082.082,0,0,1,11.749,2.2ZM22.433,16.112l-7.439,7.439a.085.085,0,0,1-.146-.06V2a3.1,3.1,0,0,1,3.1,3.1V15.173h4.1A.55.55,0,0,1,22.433,16.112Z" transform="translate(-1.313 -0.862)"/>
    <rect id="Rectangle_634" data-name="Rectangle 634" width="24" height="24" transform="translate(0.27 0.27)" fill="none"/>
  </g>
</svg>
