<svg xmlns="http://www.w3.org/2000/svg" width="24" height="24" viewBox="0 0 24 24">
  <g id="terms_contions" data-name="terms &amp; contions" transform="translate(11086 -4452)">
    <rect id="Rectangle_16197" data-name="Rectangle 16197" width="24" height="24" transform="translate(-11086 4452)" fill="none"/>
    <g id="c4fb5aeb9d7abc3862a513e580783b5b" transform="translate(-11087.055 4450.945)">
      <path id="Path_17675" data-name="Path 17675" d="M13.055,2.25a10.8,10.8,0,1,0,10.8,10.8A10.81,10.81,0,0,0,13.055,2.25Zm0,1.662a9.142,9.142,0,1,1-9.142,9.142A9.147,9.147,0,0,1,13.055,3.912Z" transform="translate(0 0)" fill="#000" fill-rule="evenodd"/>
      <path id="Path_17676" data-name="Path 17676" d="M11.25,11.581v4.433a.831.831,0,0,0,1.662,0V11.581a.831.831,0,1,0-1.662,0Z" transform="translate(0.974 0.919)" fill="#000" fill-rule="evenodd"/>
      <path id="Path_17677" data-name="Path 17677" d="M12.081,9.662a.831.831,0,1,0-.831-.831A.831.831,0,0,0,12.081,9.662Z" transform="translate(0.974 0.622)" fill="#000"/>
    </g>
  </g>
</svg>
